<svg width="34" height="24" viewBox="0 0 34 24" fill="none" xmlns="http://www.w3.org/2000/svg">
<path d="M31.75 0C33.25 0 34 0.472223 34 1.41667C34 1.86111 33.8056 2.16667 33.4167 2.33333C33.0833 2.5 32.6111 2.66667 32 2.83333C30.5 3.22222 29.2222 3.77778 28.1667 4.5C27.1111 5.16667 26.3056 5.94444 25.75 6.83333C25.25 7.72222 25 8.72222 25 9.83333C25 10.8889 25.3611 11.6944 26.0833 12.25C26.8056 12.8056 27.6111 13.2222 28.5 13.5C29.4444 13.7778 30.25 14.3333 30.9167 15.1667C31.6389 16 32 17.1389 32 18.5833C32 20.0833 31.3611 21.3611 30.0833 22.4167C28.8611 23.4722 27.4722 24 25.9167 24C23.3056 24 21.1944 23.1944 19.5833 21.5833C17.9722 19.9167 17.1667 17.8056 17.1667 15.25C17.1667 12.9722 17.5833 10.9167 18.4167 9.08333C19.25 7.19444 20.3611 5.58333 21.75 4.25C23.1389 2.86111 24.6944 1.80556 26.4167 1.08333C28.1389 0.361111 29.9167 0 31.75 0ZM14.5833 0C16.0833 0 16.8333 0.472223 16.8333 1.41667C16.8333 1.86111 16.6389 2.16667 16.25 2.33333C15.9167 2.5 15.4444 2.66667 14.8333 2.83333C13.3333 3.22222 12.0556 3.77778 11 4.5C9.94445 5.16667 9.13889 5.94444 8.58333 6.83333C8.08333 7.72222 7.83333 8.72222 7.83333 9.83333C7.83333 10.8889 8.19445 11.6944 8.91667 12.25C9.63889 12.8056 10.4444 13.2222 11.3333 13.5C12.2778 13.7778 13.0833 14.3333 13.75 15.1667C14.4722 16 14.8333 17.1389 14.8333 18.5833C14.8333 20.0833 14.1944 21.3611 12.9167 22.4167C11.6944 23.4722 10.3056 24 8.75 24C6.13889 24 4.02778 23.1944 2.41667 21.5833C0.805555 19.9167 0 17.8056 0 15.25C0 12.9722 0.416667 10.9167 1.25 9.08333C2.08333 7.19444 3.19444 5.58333 4.58333 4.25C5.97222 2.86111 7.52778 1.80556 9.25 1.08333C10.9722 0.361111 12.75 0 14.5833 0Z" fill="#002677"/>
</svg>
