<svg width="18" height="19" viewBox="0 0 18 19" fill="none" xmlns="http://www.w3.org/2000/svg">
<path d="M10.125 1.375V9.91797L12.6914 7.35156L13.5 6.54297L15.082 8.125L14.2734 8.93359L9.77344 13.4336L9 14.2422L8.19141 13.4336L3.69141 8.93359L2.88281 8.125L4.5 6.54297L5.27344 7.35156L7.875 9.91797V1.375V0.25H10.125V1.375ZM0 18.25V12.625H5.80078L7.38281 14.2422L9 15.8242L10.582 14.2422L12.1641 12.625H18V18.25H0ZM15.1875 14.5938C14.6953 14.5938 14.3438 14.9805 14.3438 15.4375C14.3438 15.9297 14.6953 16.2812 15.1875 16.2812C15.6445 16.2812 16.0312 15.9297 16.0312 15.4375C16.0312 14.9805 15.6445 14.5938 15.1875 14.5938Z" fill="#002677"/>
</svg>
