<svg width="52" height="42" viewBox="0 0 52 42" fill="none" xmlns="http://www.w3.org/2000/svg">
<g filter="url(#filter0_d_11966_9512)">
<path d="M18.125 1.875V0H19.8438L20 1.71875L18.125 1.875ZM31.7969 1.875L29.9219 1.71875L30.0781 0H31.7969V1.875ZM33.3594 1.875V0H34.0625L34.6094 0.46875L33.3594 1.875ZM34.0625 2.5L32.8906 3.90625L34.0625 2.5ZM45.3125 11.875L46.4844 10.3906L45.3125 11.875ZM47.2656 13.5156L48.5156 12.0312L50 13.2812L48.6719 14.7656L47.2656 13.5156ZM45.625 15.4688L47.0312 16.6406L45.625 15.4688ZM41.25 20.4688L39.8438 19.2188L41.25 20.4688ZM39.6094 22.2656L41.0156 23.5156L39.8438 24.8438L38.4375 23.6719L39.6094 22.2656ZM37.7344 20.7031L36.5625 22.1094L37.7344 20.7031ZM35.625 18.9062H33.75V14.9219L36.7969 17.5L35.625 18.9062ZM35.625 38.125H37.5V40H35.625V38.125ZM14.375 38.125V40H12.5V38.125H14.375ZM14.375 18.9062L13.125 17.5L16.25 14.9219V18.9062H14.375ZM12.1875 20.7031L11.0156 19.2969L12.1875 20.7031ZM10.3125 22.2656L11.4844 23.6719L10.0781 24.8438L8.90625 23.5156L10.3125 22.2656ZM8.67188 20.4688L10.1562 19.2188L8.67188 20.4688ZM4.29688 15.4688L5.78125 14.2188L4.29688 15.4688ZM2.65625 13.5156L1.25 14.7656L0 13.2812L1.48438 12.0312L2.65625 13.5156ZM4.60938 11.875L3.4375 10.3906L4.60938 11.875ZM15.8594 2.5L17.0312 3.90625L15.8594 2.5ZM16.5625 1.875L15.3906 0.46875L15.8594 0H16.5625V1.875ZM18.125 0V3.75H17.5V0H18.125ZM25 6.25V10C20.3906 10 16.6406 6.5625 16.25 2.10938L20 1.71875C20.2344 4.29688 22.3438 6.25 25 6.25ZM29.9219 1.71875L33.6719 2.10938C33.2812 6.5625 29.5312 10 25 10V6.25C27.5781 6.25 29.6875 4.29688 29.9219 1.71875ZM32.5 0V3.75H31.7969V0H32.5ZM33.3594 0V3.75H32.5V0H33.3594ZM35.2344 1.01562L32.8906 3.90625L32.1875 3.35938L34.6094 0.46875L35.2344 1.01562ZM46.4844 10.3906L44.1406 13.2812L32.8906 3.90625L35.2344 1.01562L46.4844 10.3906ZM48.5156 12.0312L46.0938 14.9219L44.1406 13.2812L46.4844 10.3906L48.5156 12.0312ZM47.0312 16.6406L44.2188 14.2188L45.8594 12.2656L48.6719 14.7656L47.0312 16.6406ZM42.6562 21.6406L39.8438 19.2188L44.2188 14.2188L47.0312 16.6406L42.6562 21.6406ZM41.0156 23.5156L38.2031 21.0156L39.8438 19.2188L42.6562 21.6406L41.0156 23.5156ZM36.5625 22.1094L38.9062 19.2969L40.7812 20.8594L38.4375 23.6719L36.5625 22.1094ZM34.375 20.3906L36.7969 17.5L38.9062 19.2969L36.5625 22.1094L34.375 20.3906ZM33.75 18.9062H37.5V38.125H33.75V18.9062ZM35.625 36.25V40H14.375V36.25H35.625ZM16.25 38.125H12.5V18.9062H16.25V38.125ZM13.3594 22.1094L11.0156 19.2969L13.125 17.5L15.5469 20.3906L13.3594 22.1094ZM11.4844 23.6719L9.14062 20.8594L11.0156 19.2969L13.3594 22.1094L11.4844 23.6719ZM7.26562 21.6406L10.1562 19.2188L11.7188 21.0156L8.90625 23.5156L7.26562 21.6406ZM2.89062 16.6406L5.78125 14.2188L10.1562 19.2188L7.26562 21.6406L2.89062 16.6406ZM1.25 14.7656L4.0625 12.2656L5.78125 14.2188L2.89062 16.6406L1.25 14.7656ZM3.4375 10.3906L5.78125 13.2812L3.82812 14.9219L1.48438 12.0312L3.4375 10.3906ZM14.6875 1.01562L17.0312 3.90625L5.78125 13.2812L3.4375 10.3906L14.6875 1.01562ZM15.3906 0.46875L17.7344 3.35938L17.0312 3.90625L14.6875 1.01562L15.3906 0.46875ZM17.5 0V3.75H16.5625V0H17.5Z" fill="#3364FA"/>
</g>
<defs>
<filter id="filter0_d_11966_9512" x="0" y="0" width="52" height="42" filterUnits="userSpaceOnUse" color-interpolation-filters="sRGB">
<feFlood flood-opacity="0" result="BackgroundImageFix"/>
<feColorMatrix in="SourceAlpha" type="matrix" values="0 0 0 0 0 0 0 0 0 0 0 0 0 0 0 0 0 0 127 0" result="hardAlpha"/>
<feOffset dx="2" dy="2"/>
<feComposite in2="hardAlpha" operator="out"/>
<feColorMatrix type="matrix" values="0 0 0 0 0.721569 0 0 0 0 0.988235 0 0 0 0 0.74902 0 0 0 1 0"/>
<feBlend mode="normal" in2="BackgroundImageFix" result="effect1_dropShadow_11966_9512"/>
<feBlend mode="normal" in="SourceGraphic" in2="effect1_dropShadow_11966_9512" result="shape"/>
</filter>
</defs>
</svg>
