<svg width="202" height="41" viewBox="0 0 202 41" fill="none" xmlns="http://www.w3.org/2000/svg">
<g clip-path="url(#clip0_40000125_3705)">
<path d="M4.71713 12.2626H10.1216V26.9755C10.1216 29.6402 9.50203 31.603 8.26284 32.864C7.02366 34.125 5.08259 34.7542 2.43722 34.7542C1.45701 34.7542 0.646215 34.6599 0 34.4735V29.9766C0.479216 30.0807 0.94633 30.1339 1.40618 30.1339C2.6139 30.1339 3.46826 29.8266 3.96684 29.2118C4.46784 28.5971 4.71713 27.4571 4.71713 25.7919V12.2674V12.2626Z" fill="white"/>
<path d="M19.9916 18.1342C24.8031 18.1342 27.2064 20.2785 27.2064 24.5697V30.0347C27.2064 31.9298 27.3638 33.4183 27.676 34.5025H22.9903C22.8451 33.9193 22.7725 33.2319 22.7725 32.4405H22.7096C21.5018 34.0863 19.7834 34.9091 17.5568 34.9091C15.8698 34.9091 14.5363 34.4517 13.5585 33.5344C12.5807 32.6171 12.0894 31.453 12.0894 30.0347C12.0894 28.6164 12.5734 27.5249 13.5415 26.6923C14.5096 25.8597 16.1288 25.2667 18.399 24.911C19.7108 24.7028 20.9815 24.5576 22.211 24.4729V23.9114C22.211 22.2462 21.4704 21.4112 19.994 21.4112C18.5176 21.4112 17.7867 22.1518 17.7456 23.6282H12.7477C12.83 22.026 13.4762 20.7069 14.6839 19.6759C15.8916 18.6449 17.6608 18.1293 19.994 18.1293L19.9916 18.1342ZM22.2086 27.8806V27.3191C21.209 27.3603 20.2723 27.4644 19.3962 27.6314C18.6265 27.7766 18.0699 28.0113 17.7262 28.3332C17.3825 28.6551 17.2107 29.0981 17.2107 29.6596C17.2107 30.2211 17.3874 30.664 17.7407 30.9883C18.0941 31.3102 18.5951 31.4723 19.2413 31.4723C20.3449 31.4723 21.1146 31.1601 21.5527 30.5357C21.9907 29.9113 22.2086 29.0254 22.2086 27.8806Z" fill="white"/>
<path d="M49.1971 18.2286C50.9252 18.2286 52.283 18.7852 53.2729 19.901C54.2604 21.0143 54.7565 22.6335 54.7565 24.7585V34.505H49.5723V25.3224C49.5723 23.2821 48.8752 22.2608 47.4787 22.2608C45.8329 22.2608 45.0101 23.6573 45.0101 26.4454V34.505H39.8258V25.1022C39.8258 23.2071 39.1288 22.2583 37.7323 22.2583C36.0671 22.2583 35.2345 23.6548 35.2345 26.443V34.5025H30.0503V18.6352H34.8909V20.448H34.9538C36.0574 18.9692 37.5459 18.231 39.4216 18.231C41.6507 18.231 43.2118 19.1483 44.1073 20.9804C45.3562 19.1483 47.0528 18.231 49.1996 18.231L49.1971 18.2286Z" fill="white"/>
<path d="M65.0013 31.5353C65.7298 31.5353 66.3325 31.3586 66.8141 31.0052C67.2933 30.6519 67.5741 30.192 67.6564 29.6305H72.935C72.601 31.1722 71.7224 32.4526 70.2945 33.4739C68.8689 34.4953 67.1239 35.0035 65.0618 35.0035C62.4576 35.0035 60.4342 34.2121 58.9869 32.6292C57.5396 31.0464 56.8159 28.9843 56.8159 26.4454C56.8159 23.9065 57.5444 22.0405 59.0014 20.4794C60.4584 18.9183 62.4576 18.1366 64.9989 18.1366C66.8528 18.1366 68.4357 18.5892 69.7475 19.4968C71.0593 20.402 71.9959 21.646 72.5598 23.2289C72.9761 24.3543 73.1843 25.821 73.1843 27.6338H61.9082C62.0123 30.238 63.0433 31.5377 65.0013 31.5377V31.5353ZM65.0013 21.5395C63.2926 21.5395 62.293 22.5923 62.0026 24.6956H67.9686C67.8645 23.6331 67.5426 22.8416 67.0005 22.3213C66.4583 21.8009 65.7927 21.5395 65.0013 21.5395Z" fill="white"/>
<path d="M82.2438 18.1342C84.4729 18.1342 86.2009 18.5819 87.428 19.4774C88.6575 20.3729 89.2723 21.6944 89.2723 23.4443H84.3373C84.3373 22.0913 83.6282 21.4137 82.2123 21.4137C80.9828 21.4137 80.3705 21.8299 80.3705 22.6625C80.3705 23.12 80.5835 23.4636 81.0119 23.6936C81.4378 23.9235 82.3091 24.2042 83.6209 24.5358C84.4124 24.744 85.0223 24.9158 85.4482 25.0513C85.8742 25.1869 86.4115 25.3999 87.0577 25.6903C87.7039 25.9832 88.1977 26.3002 88.5414 26.6439C88.885 26.9876 89.1876 27.4402 89.4465 28.0017C89.7079 28.5632 89.8362 29.1997 89.8362 29.9064C89.8362 31.4481 89.1803 32.6825 87.8685 33.607C86.5567 34.534 84.756 34.9963 82.464 34.9963C77.4032 34.9963 74.874 33.1109 74.874 29.3425H80.0897C80.0897 30.8407 80.903 31.5909 82.527 31.5909C83.1732 31.5909 83.6669 31.4724 84.0106 31.2327C84.3543 30.9931 84.5261 30.6761 84.5261 30.2792C84.5261 29.737 84.2817 29.3377 83.7928 29.0763C83.3039 28.8149 82.3285 28.4978 80.8715 28.1227C80.143 27.9363 79.5912 27.7887 79.216 27.6846C78.8409 27.5805 78.352 27.3869 77.7469 27.1062C77.1418 26.8254 76.6941 26.5277 76.4036 26.2155C76.1108 25.9033 75.847 25.4773 75.6074 24.9352C75.3678 24.393 75.2492 23.7783 75.2492 23.0933C75.2492 21.6145 75.8639 20.4189 77.091 19.5016C78.3205 18.5843 80.0365 18.1269 82.2438 18.1269V18.1342Z" fill="white"/>
<path d="M116.636 18.6352L113.107 34.5025H106.016L104.735 28.5365C104.256 26.2663 103.862 24.0493 103.549 21.8832H103.486C103.174 24.0493 102.777 26.2663 102.3 28.5365L101.02 34.5025H93.9287L90.3999 18.6352H95.4607L96.4917 24.4753C96.908 26.7867 97.242 29.0351 97.4913 31.2231H97.5543C97.9294 28.7447 98.3554 26.4866 98.8346 24.4439L100.146 18.6352H106.894L108.206 24.4439C108.685 26.4841 109.111 28.7447 109.486 31.2231H109.549C109.798 29.0375 110.132 26.7867 110.549 24.4753L111.58 18.6352H116.641H116.636Z" fill="white"/>
<path d="M124.724 18.1342C129.536 18.1342 131.939 20.2785 131.939 24.5697V30.0347C131.939 31.9298 132.097 33.4183 132.409 34.5025H127.723C127.578 33.9193 127.505 33.2319 127.505 32.4405H127.442C126.235 34.0863 124.516 34.9091 122.29 34.9091C120.603 34.9091 119.269 34.4517 118.291 33.5344C117.314 32.6171 116.822 31.453 116.822 30.0347C116.822 28.6164 117.306 27.5249 118.274 26.6923C119.243 25.8597 120.862 25.2667 123.132 24.911C124.444 24.7028 125.714 24.5576 126.944 24.4729V23.9114C126.944 22.2462 126.203 21.4112 124.727 21.4112C123.251 21.4112 122.52 22.1518 122.478 23.6282H117.481C117.563 22.026 118.209 20.7069 119.417 19.6759C120.625 18.6449 122.394 18.1293 124.727 18.1293L124.724 18.1342ZM126.944 27.8806V27.3191C125.944 27.3603 125.008 27.4644 124.132 27.6314C123.362 27.7766 122.805 28.0113 122.462 28.3332C122.118 28.6551 121.946 29.0981 121.946 29.6596C121.946 30.2211 122.123 30.664 122.476 30.9883C122.829 31.3102 123.33 31.4723 123.977 31.4723C125.08 31.4723 125.85 31.1601 126.288 30.5357C126.726 29.9113 126.944 29.0254 126.944 27.8806Z" fill="white"/>
<path d="M144.527 18.6352H149.806L144.527 34.2218C143.736 36.5743 142.777 38.208 141.654 39.1253C140.529 40.0426 138.946 40.5 136.906 40.5C136.01 40.5 135.115 40.4056 134.219 40.2192V36.2839C134.72 36.4509 135.25 36.5332 135.812 36.5332C136.54 36.5332 137.123 36.3516 137.561 35.9862C138 35.6207 138.217 35.1173 138.217 34.4711C138.217 33.9919 137.925 32.9729 137.344 31.4094L132.689 18.6328H138.28L139.81 23.9429C140.475 26.3994 141.008 28.6067 141.402 30.5647H141.465C141.903 28.3574 142.434 26.1405 143.058 23.9114L144.527 18.6328V18.6352Z" fill="white"/>
<path d="M172.934 15.9196C173.333 5.60921 178.902 0.5 186.855 0.5C194.808 0.5 200.373 5.60921 200.777 15.9196C201.258 26.1719 193.714 37.298 186.855 37.298C178.864 37.298 172.45 26.1695 172.934 15.9196ZM197.989 18.1075C196.759 19.3588 195.14 20.0438 193.247 20.0438C189.992 20.0438 187.274 17.7493 186.621 14.6901L188.663 13.6131L186.485 12.8313C186.485 12.8313 186.074 8.92984 181.272 9.91006C176.62 10.8588 175.853 15.1693 175.853 18.7247C175.853 27.1957 180.732 34.4445 186.826 34.4445C192.311 34.4445 197.851 26.0412 197.986 18.1051L197.989 18.1075ZM182.574 11.7228C182.037 11.7228 181.601 12.1585 181.601 12.6958C181.601 13.2331 182.037 13.6688 182.574 13.6688C183.111 13.6688 183.547 13.2331 183.547 12.6958C183.547 12.1585 183.111 11.7228 182.574 11.7228Z" fill="white"/>
<path d="M155.958 18.945C156.503 25.8283 159.891 32.576 164.538 35.6207V26.1671C164.538 22.1785 161.304 18.945 157.316 18.945H155.958Z" fill="white"/>
<path d="M155.893 17.7155H157.323C161.312 17.7155 164.545 14.482 164.545 10.4933V1.38582C159.496 3.25428 156.212 8.08517 155.91 15.9172C155.88 16.5174 155.876 17.1104 155.893 17.713" fill="white"/>
<path d="M172.026 19.0781C172.455 24.3107 174.456 29.4684 177.453 33.1907L177.428 33.2174C175.102 35.7732 172.401 37.3778 169.795 37.3778C168.391 37.3778 167.026 37.0196 165.748 36.3976L165.758 26.247C165.758 22.5947 168.497 19.5621 171.978 19.0829C171.997 19.0805 172.026 19.0757 172.026 19.0757V19.0781Z" fill="white"/>
<path d="M171.898 17.6913C168.389 17.154 165.748 14.1746 165.748 10.5539V1.06877C167.079 0.722666 168.396 0.570189 169.824 0.570189C172.726 0.570189 175.335 1.28175 177.419 2.61533L177.426 2.62017C174.202 5.26069 172.205 9.67045 171.966 15.8422C171.937 16.4569 171.932 17.0814 171.949 17.7009C171.915 17.6961 171.896 17.6937 171.896 17.6937L171.898 17.6913Z" fill="white"/>
<path d="M195.105 34.7251V34.5H196.69V34.7251H196.025V36.4483H195.771V34.7251H195.105Z" fill="white"/>
<path d="M198.297 35.4609L198.648 34.5H198.653H199.06V36.4483H198.813V35.4584C198.813 35.2939 198.813 35.0446 198.818 34.713H198.813C198.767 34.8485 198.677 35.0978 198.547 35.4584L198.186 36.4483H197.896L197.535 35.4584C197.402 35.0978 197.315 34.8485 197.269 34.713H197.264C197.269 35.0463 197.269 35.2928 197.269 35.4574V35.4584V36.4483H197.022V34.5H197.426L197.779 35.4609C197.867 35.7077 197.951 35.957 198.036 36.2087H198.041C198.123 35.957 198.21 35.7077 198.297 35.4609Z" fill="white"/>
</g>
<defs>
<clipPath id="clip0_40000125_3705">
<rect width="201.108" height="40" fill="white" transform="translate(0 0.5)"/>
</clipPath>
</defs>
</svg>
