<svg width="53" height="38" viewBox="0 0 53 38" fill="none" xmlns="http://www.w3.org/2000/svg">
<path d="M49.1465 0.271996C51.4505 0.271996 52.6025 0.99733 52.6025 2.448C52.6025 3.13066 52.3038 3.59999 51.7065 3.856C51.1945 4.112 50.4692 4.368 49.5305 4.62399C47.2265 5.22133 45.2638 6.07466 43.6425 7.184C42.0212 8.208 40.7838 9.40266 39.9305 10.768C39.1625 12.1333 38.7785 13.6693 38.7785 15.376C38.7785 16.9973 39.3332 18.2347 40.4425 19.088C41.5518 19.9413 42.7892 20.5813 44.1545 21.008C45.6052 21.4347 46.8425 22.288 47.8665 23.568C48.9758 24.848 49.5305 26.5973 49.5305 28.816C49.5305 31.12 48.5492 33.0827 46.5865 34.704C44.7092 36.3253 42.5758 37.136 40.1865 37.136C36.1758 37.136 32.9332 35.8987 30.4585 33.424C27.9838 30.864 26.7465 27.6213 26.7465 23.696C26.7465 20.1973 27.3865 17.04 28.6665 14.224C29.9465 11.3227 31.6532 8.84799 33.7865 6.8C35.9198 4.66666 38.3092 3.04533 40.9545 1.936C43.5998 0.826663 46.3305 0.271996 49.1465 0.271996ZM22.7785 0.271996C25.0825 0.271996 26.2345 0.99733 26.2345 2.448C26.2345 3.13066 25.9358 3.59999 25.3385 3.856C24.8265 4.112 24.1012 4.368 23.1625 4.62399C20.8585 5.22133 18.8958 6.07466 17.2745 7.184C15.6532 8.208 14.4158 9.40266 13.5625 10.768C12.7945 12.1333 12.4105 13.6693 12.4105 15.376C12.4105 16.9973 12.9652 18.2347 14.0745 19.088C15.1838 19.9413 16.4212 20.5813 17.7865 21.008C19.2372 21.4347 20.4745 22.288 21.4985 23.568C22.6078 24.848 23.1625 26.5973 23.1625 28.816C23.1625 31.12 22.1812 33.0827 20.2185 34.704C18.3412 36.3253 16.2078 37.136 13.8185 37.136C9.80783 37.136 6.56517 35.8987 4.0905 33.424C1.61583 30.864 0.3785 27.6213 0.3785 23.696C0.3785 20.1973 1.0185 17.04 2.2985 14.224C3.5785 11.3227 5.28517 8.84799 7.4185 6.8C9.55183 4.66666 11.9412 3.04533 14.5865 1.936C17.2318 0.826663 19.9625 0.271996 22.7785 0.271996Z" fill="#FFB81C"/>
</svg>
