<svg width="41" height="40" viewBox="0 0 41 40" fill="none" xmlns="http://www.w3.org/2000/svg">
<path d="M25.9629 0.295437C23.7522 0.886936 21.3147 2.31024 19.8031 3.8999C18.2537 5.5635 16.6477 8.2992 15.6651 10.961C15.4006 11.7188 15.155 11.9776 14.0024 12.7355C13.2466 13.2345 11.9617 14.1957 11.1303 14.8797C7.61588 17.7632 5.34849 18.8723 2.24972 19.205C0.26575 19.4268 0.0956951 19.6117 0.530279 21.0165C1.02155 22.5507 2.17414 24.9167 3.0622 26.1921C5.99092 30.4251 9.69433 32.4768 15.4006 33.0129L16.4398 33.1053L17.5357 35.231C18.1404 36.3955 18.6127 37.3752 18.575 37.4122C18.5372 37.4307 17.9892 37.671 17.3657 37.9297C16.3642 38.3364 16.232 38.4473 16.232 38.9094C16.232 39.7782 16.7044 39.8706 18.0081 39.2976C19.7842 38.5212 21.5981 38.207 23.8844 38.3179C25.9818 38.3919 26.7943 38.6322 28.1169 39.5194L28.8349 40L29.1939 39.5749C29.6663 39.0018 29.6474 38.8724 28.9861 38.2625C28.3058 37.634 26.7754 37.0425 25.4149 36.8576C24.6024 36.7652 24.3379 36.6173 23.7711 35.9889C23.1664 35.3604 21.6548 32.5693 21.8438 32.4584C21.8816 32.4399 22.2784 32.3105 22.7507 32.1811C27.5312 30.8502 31.9526 26.7282 33.8799 21.8113C34.6168 19.9629 35.2025 16.9684 35.4103 14.1957C35.5048 12.9018 35.7127 11.534 35.9016 10.9979C36.3551 9.7225 37.6588 8.50252 39.1327 7.96648C40.4742 7.4674 40.7954 7.19013 40.6254 6.61711C40.4931 6.08106 38.0934 4.56534 36.7519 4.17717C35.9772 3.95535 35.5615 3.67809 34.8813 2.93871C32.6139 0.461796 29.1939 -0.554848 25.9629 0.295437ZM31.0267 2.06994C32.0659 2.43963 33.9743 4.01081 34.4467 4.86109C34.6357 5.2123 34.9758 5.37865 35.9394 5.61895C37.1487 5.9147 38.0556 6.33984 38.0556 6.61711C38.0556 6.69105 37.64 6.96832 37.1298 7.24558C36.6196 7.52285 35.9016 8.11435 35.5048 8.57646C34.6546 9.61159 33.8988 11.5894 33.8988 12.9018C33.8799 16.3954 33.1052 19.9259 31.7258 22.6431C30.0631 25.9518 27.5501 28.4103 24.1679 30.0184C22.335 30.9057 21.3525 31.1644 19.0095 31.3493L17.5168 31.4787L17.309 30.6469C17.1767 30.1848 17.0445 29.6672 16.9689 29.5008C16.8744 29.2421 17.0067 29.2051 17.9136 29.2051C21.6737 29.2051 25.5094 27.3382 27.5689 24.51C29.0239 22.4952 29.5718 21.0904 29.6852 19.0387C29.8741 15.8408 28.7026 13.327 26.2841 11.7743C24.1868 10.4064 21.2958 9.98128 18.7072 10.6282C18.0837 10.7946 17.5546 10.8685 17.4979 10.8131C17.3279 10.6652 18.386 8.52101 19.3685 7.02377C22.2217 2.66144 27.0021 0.628155 31.0267 2.06994ZM22.9586 12.0885C25.037 12.5506 26.6809 13.9 27.6445 15.8778C28.0602 16.7651 28.1358 17.1717 28.1358 18.595C28.1358 20.2032 28.098 20.3326 27.3233 21.8668C25.944 24.6025 23.5443 26.5618 20.729 27.2642C19.5575 27.56 16.8366 27.7263 16.6288 27.523C16.3453 27.2457 16.1375 25.1755 16.0241 21.6265C15.9297 18.5581 15.9675 17.4305 16.2131 15.7299C16.402 14.5654 16.6288 13.4564 16.7232 13.2715C16.95 12.8649 17.9514 12.4397 19.4441 12.107C20.9179 11.7928 21.6548 11.7743 22.9586 12.0885ZM14.5503 14.9166C14.4747 15.2124 14.3614 17.0978 14.3047 19.1311C14.2291 22.0146 14.2858 23.3086 14.5125 25.0276C14.7015 26.2291 14.796 27.2642 14.7393 27.3012C14.6826 27.3566 14.0591 27.2273 13.3222 27.0054C11.7728 26.5433 11.3571 26.5248 11.0359 26.8945C10.4312 27.6154 11.0926 28.096 13.6056 28.6875L15.1928 29.0757L15.5329 30.2032L15.873 31.3308L15.2305 31.3863C14.0591 31.4972 11.5649 30.8872 9.8077 30.0369C6.86009 28.6506 4.68717 26.3585 2.98662 22.828C2.04187 20.9056 2.06077 20.7023 3.11889 20.7023C3.91247 20.7023 6.69003 19.7041 8.23942 18.8538C9.033 18.4102 10.7336 17.2457 12.0184 16.2475C13.3033 15.2493 14.4181 14.436 14.5125 14.4175C14.5881 14.4175 14.607 14.6394 14.5503 14.9166ZM20.4833 33.4011C20.6156 33.7892 21.0313 34.695 21.447 35.4159L22.165 36.7283L21.2769 36.8392C20.5967 36.9131 20.3511 36.8576 20.1621 36.6358C19.8976 36.2477 18.2159 33.1792 18.2159 33.0314C18.2159 32.9759 18.575 32.8835 19.0284 32.8465C19.463 32.8096 19.9165 32.7726 20.0488 32.7541C20.1621 32.7356 20.37 33.0314 20.4833 33.4011Z" fill="#FFB81C"/>
<path d="M28.9115 5.76686C28.2312 6.70957 28.7603 7.76318 29.894 7.76318C30.4797 7.76318 31.2544 7.07926 31.2544 6.5617C31.2544 6.4323 31.0844 6.11807 30.8576 5.8408C30.3475 5.21233 29.3271 5.17536 28.9115 5.76686Z" fill="#FFB81C"/>
</svg>
