<svg width="40" height="42" viewBox="0 0 40 42" fill="none" xmlns="http://www.w3.org/2000/svg">
<path d="M13.1349 1.02228C11.474 1.27602 10.2514 1.85849 9.10949 2.94269C8.35978 3.66357 7.70811 4.52285 7.25828 5.41097C7.12564 5.68202 7.05644 5.72815 5.30327 6.80082C4.30558 7.41212 3.44629 7.95998 3.39439 8.01189C3.15218 8.28294 3.25598 8.7443 3.602 8.92307C3.70004 8.97498 4.2133 9.17682 4.7381 9.37867C5.97801 9.84579 6.33556 10.0303 6.64121 10.3591C7.12564 10.8839 7.27558 11.4375 7.32172 12.8273L7.35632 13.8539L7.16024 13.825C7.05067 13.802 5.97801 13.6347 4.7727 13.4444C3.5674 13.2541 2.40823 13.0695 2.19485 13.0349C1.48551 12.9196 0.920345 13.2022 0.614693 13.825L0.458984 14.1422L0.493586 15.1053C0.516654 15.6359 0.608926 16.7547 0.706966 17.5966C0.805005 18.4386 1.07605 20.8492 1.3125 22.96C1.99877 29.0672 2.15448 29.9784 2.65621 30.9415C3.0426 31.6854 3.59047 32.2102 4.36901 32.5909C4.76117 32.7812 4.99762 32.8446 5.95494 33.0176C7.40822 33.2771 11.1914 33.923 14.0864 34.4075C15.3379 34.6151 16.3644 34.7939 16.3701 34.7996C16.3759 34.8054 16.1049 35.5205 15.7704 36.3798L15.1533 37.9542H14.9457C14.5766 37.9542 13.6654 38.1387 13.1637 38.3117C12.4486 38.5597 11.9757 38.8423 11.5086 39.3094C11.0991 39.7016 11.0876 39.7246 11.0876 39.9957C11.0876 40.3532 11.3125 40.607 11.6354 40.607C11.8834 40.607 11.9699 40.5666 12.4371 40.2206C12.933 39.8515 13.3886 39.6381 14.023 39.4651C14.5362 39.3267 14.6689 39.321 15.8742 39.3152C17.0103 39.3152 17.2467 39.3267 17.7485 39.4421C18.602 39.6266 19.7323 39.9842 20.9434 40.4398C22.4082 40.9992 22.4024 40.9992 22.6504 40.878C22.933 40.7454 23.0656 40.4398 22.9734 40.1341C22.8926 39.8631 22.8004 39.8054 21.9814 39.4767C21.6181 39.3325 21.3125 39.2056 21.3009 39.1941C21.2894 39.1825 21.3817 38.9692 21.497 38.7212C21.6758 38.3521 21.8546 37.8965 22.0795 37.2679C22.091 37.2218 22.241 37.3948 22.4428 37.7004C23.5558 39.3902 25.061 40.4282 27.0333 40.8723C27.6908 41.0165 29.0114 41.0453 29.7208 40.9242C32.0795 40.532 34.1441 38.9749 35.0206 36.9276C35.482 35.8608 35.6204 35.0937 35.6204 33.6866C35.6146 32.314 35.4186 30.9761 35.0322 29.7362L34.9226 29.3902L35.4532 28.8365C36.6758 27.5563 37.4716 26.2991 38.2271 24.4536C38.5558 23.6462 39.0633 22.1064 39.2306 21.3913C39.3574 20.8838 39.3574 20.8204 39.2825 20.6186C39.2363 20.4917 39.1152 20.3417 39.0114 20.2725C38.8442 20.1572 38.7346 20.1457 37.5754 20.1168C36.497 20.0938 36.2317 20.0649 35.7127 19.9438C34.9168 19.7535 34.196 19.494 33.5155 19.1537C32.3159 18.554 31.67 18.0984 29.0806 16.0223C28.0195 15.1687 26.7969 14.2403 26.3701 13.9519C25.5974 13.4329 24.4786 12.8504 23.9134 12.6716L23.6193 12.5736L23.5501 12.0719C23.0945 8.72699 22.0622 6.02227 20.5051 4.10186C19.2998 2.61974 17.6389 1.58744 15.7646 1.15492C15.2802 1.03958 13.5732 0.958839 13.1349 1.02228ZM15.7761 2.56207C16.8373 2.84465 17.9964 3.49055 18.8442 4.2864C20.4186 5.75699 21.497 8.06956 22.0737 11.2126C22.2871 12.389 22.3851 12.2622 21.2779 12.2679C20.4763 12.2737 20.2686 12.2968 19.79 12.4236C18.4001 12.787 17.2929 13.5828 16.497 14.7766L16.1914 15.2379L15.9607 15.2091C15.5743 15.1572 11.7219 14.5517 10.1822 14.2979L8.7231 14.0615V13.1618C8.7231 11.3106 8.38285 10.2149 7.5697 9.40174C7.25252 9.09032 7.0449 8.95191 6.38746 8.61742L5.59162 8.21373L6.39323 7.72354C6.83729 7.45249 7.40822 7.10647 7.67351 6.95076L8.15793 6.66817L8.49242 6.00497C8.67696 5.64165 8.95955 5.15145 9.12679 4.92077C10.0207 3.6578 11.4336 2.74084 12.9215 2.45826C13.6424 2.32562 15.0668 2.37752 15.7761 2.56207ZM22.4889 13.7039C23.4924 13.8942 24.6343 14.3902 25.6896 15.0938C26.2779 15.4859 27.1602 16.1664 28.7577 17.4525C30.8684 19.1537 32.4832 20.1687 33.9826 20.7281C35.0841 21.1376 36.399 21.4029 37.3447 21.4029H37.858L37.8119 21.5874C37.7427 21.9161 37.166 23.577 36.918 24.1595C36.4047 25.3821 35.6723 26.5643 34.8649 27.4871C34.6285 27.7639 34.4266 27.9773 34.4151 27.9657C34.4093 27.9542 34.2133 27.6082 33.9826 27.1987C33.3828 26.1203 32.9388 25.4917 32.2871 24.8227C31.1452 23.6289 30.0899 23.058 28.8211 22.9369C27.9849 22.8562 26.9584 23.1272 26.1049 23.6578C24.6458 24.569 23.0368 26.795 22.2986 28.9288C22.2121 29.1826 22.1256 29.4132 22.1026 29.4363C22.0795 29.4651 22.0391 29.2575 22.0218 28.9749C21.9987 28.6981 21.9295 27.9196 21.8661 27.2564C21.6585 25.013 21.1279 19.1941 21.0357 18.058C20.9261 16.8008 20.8453 16.5067 20.5051 16.2126C20.211 15.9531 20.0207 15.8954 18.8327 15.6878C18.2387 15.584 17.7369 15.4917 17.7254 15.4859C17.6735 15.4398 18.0541 14.9669 18.3944 14.6555C18.9134 14.1826 19.6343 13.825 20.3782 13.6809C20.7992 13.5943 21.993 13.6116 22.4889 13.7039ZM5.02068 14.8285C6.72195 15.1111 9.14409 15.5032 10.3955 15.6935C12.4717 16.0165 18.9941 17.0834 19.4324 17.1699C19.5478 17.193 19.6227 17.2506 19.6458 17.3314C19.6689 17.3948 19.7842 18.554 19.9111 19.9035C20.6839 28.2541 21.1049 32.4986 21.2721 33.5886C21.3182 33.9057 21.3471 34.171 21.3413 34.1768C21.3125 34.1999 20.0149 34.0441 19.1325 33.9173C16.226 33.4847 6.15678 31.795 5.40707 31.6105C4.64583 31.4202 4.14987 31.0107 3.77501 30.2552C3.37709 29.4536 3.36555 29.3729 2.60431 22.6428C1.74503 15.0303 1.68159 14.3095 1.90074 14.3095C1.91227 14.3095 3.31365 14.5401 5.02068 14.8285ZM29.5881 24.4709C30.3955 24.8054 31.0991 25.3648 31.7565 26.2126C32.8695 27.637 33.5558 29.0845 33.9999 30.9184C34.294 32.1295 34.3574 32.6543 34.3517 33.8308C34.3459 34.7477 34.3286 34.9323 34.196 35.4225C33.9134 36.4951 33.4232 37.3544 32.6735 38.0753C31.8949 38.8308 31.0356 39.3152 30.0322 39.5747C29.5939 39.69 29.3747 39.7073 28.5904 39.7073C27.7831 39.7073 27.5985 39.6843 27.1083 39.5516C24.6112 38.8827 22.9388 36.8873 22.6793 34.2691C22.4947 32.4179 23.2156 29.6093 24.4094 27.5274C24.8938 26.6797 25.384 26.0338 26.001 25.4398C26.572 24.8919 26.9872 24.6266 27.6043 24.419C28.1752 24.2287 29.0518 24.2518 29.5881 24.4709ZM18.873 35.186C19.271 35.2437 19.9745 35.3417 20.4417 35.3936C20.9895 35.4571 21.2779 35.5147 21.2663 35.5551C21.2548 35.5897 21.151 35.9415 21.0357 36.3394C20.7185 37.4467 20.3955 38.2195 20.1014 38.5828L19.9918 38.7154L19.4497 38.5424C18.6539 38.2887 18.0656 38.1503 17.3275 38.0349C16.7738 37.9542 16.6816 37.9253 16.7104 37.8446C16.7277 37.7927 16.9815 37.1353 17.2756 36.3855L17.8061 35.013L17.9791 35.0418C18.0772 35.0591 18.4751 35.1226 18.873 35.186Z" fill="#002677" stroke="#002677" stroke-width="0.5"/>
<path d="M12.1094 6.37406C11.6077 6.5586 11.3251 6.92769 11.2732 7.46402C11.204 8.15606 11.7864 8.77313 12.5015 8.77313C12.986 8.77313 13.407 8.50785 13.6376 8.05802C13.8107 7.71777 13.7645 7.18721 13.5338 6.85849C13.2224 6.40866 12.588 6.19528 12.1094 6.37406Z" fill="#002677" stroke="#002677" stroke-width="0.5"/>
<path d="M4.05694 16.4894L3.89547 16.6508L3.84933 18.4098C3.82626 19.3844 3.82626 20.2552 3.84933 20.3533C3.9243 20.7166 4.35683 20.8838 4.63364 20.6589C4.76629 20.5493 4.77205 20.5205 4.80089 19.4478L4.82972 18.3463L5.34875 19.2806C6.23687 20.8838 6.41565 21.1145 6.74437 21.1145C7.10769 21.1145 7.11346 21.0799 7.09616 18.8654L7.07885 16.8931L6.91738 16.7546C6.71553 16.5816 6.57713 16.5816 6.37528 16.7546L6.2138 16.8931V17.9369C6.2138 18.5136 6.20227 18.9807 6.18497 18.9749C6.16767 18.9749 5.97159 18.5886 5.74091 18.1272C4.922 16.4548 4.501 16.0395 4.05694 16.4894Z" fill="#002677" stroke="#002677" stroke-width="0.5"/>
<path d="M8.08262 17.0949C7.98458 17.1872 7.96728 17.4582 7.88077 19.9611C7.8404 21.0338 7.8404 21.0338 7.97881 21.1895C8.09992 21.3279 8.20372 21.3682 8.74582 21.4605C9.56474 21.6105 9.81848 21.6105 10.0146 21.4548C10.2452 21.2702 10.2049 20.855 9.93959 20.7166C9.88192 20.682 9.59934 20.6301 9.30522 20.5897L8.77466 20.5205L8.79196 20.0822C8.80349 19.7593 8.82656 19.6497 8.88423 19.6612C8.9246 19.667 9.15528 19.6785 9.40326 19.6785C9.78965 19.6843 9.85309 19.667 9.94536 19.5574C10.2798 19.148 9.83002 18.6924 9.08607 18.6924H8.83809V18.3175V17.9484L9.38596 17.983C10.0203 18.0234 10.1645 17.9542 10.1645 17.6255C10.1645 17.2275 9.85309 17.0949 8.83809 17.0372C8.27293 17.0084 8.15759 17.0199 8.08262 17.0949Z" fill="#002677" stroke="#002677" stroke-width="0.5"/>
<path d="M10.9141 17.5794C10.7988 17.7293 10.7873 17.787 10.8161 18.2599C10.8507 18.8423 11.3351 21.2068 11.4793 21.5182C11.6754 21.9161 12.0848 21.968 12.2982 21.622C12.3559 21.5182 12.5289 21.1491 12.6788 20.8031C12.8288 20.4513 12.9729 20.1399 12.996 20.1168C13.0191 20.088 13.169 20.4686 13.3363 20.9646C13.6708 21.9796 13.7746 22.1526 14.0456 22.1526C14.4147 22.1468 14.4781 22.0372 14.9453 20.4975C15.4989 18.6693 15.5277 18.4732 15.3201 18.1272C15.2336 18.0003 14.9453 17.9484 14.8011 18.0465C14.68 18.1272 14.5646 18.4329 14.3513 19.2403C14.0687 20.3014 14.0514 20.359 14.011 20.2495C13.9937 20.2033 13.8726 19.7996 13.74 19.3614C13.4862 18.4732 13.3997 18.306 13.1979 18.2541C12.8403 18.1676 12.7134 18.3233 12.3328 19.3268C12.1829 19.7247 12.0387 20.0649 12.0156 20.0938C11.9926 20.1168 11.9003 19.6612 11.8138 19.0845C11.7273 18.5021 11.635 17.9311 11.6004 17.8158C11.4966 17.4236 11.1333 17.3025 10.9141 17.5794Z" fill="#002677" stroke="#002677" stroke-width="0.5"/>
<path d="M16.5848 18.3117C16.0427 18.5655 15.8062 19.1537 16.0196 19.7074C16.158 20.0707 16.331 20.261 16.9135 20.6589C17.4671 21.0338 17.6056 21.2356 17.5133 21.5067C17.4844 21.5932 17.3864 21.697 17.2941 21.7373C17.0404 21.8642 16.7809 21.7777 16.481 21.4894C16.1869 21.1953 16.0139 21.1606 15.8293 21.3625C15.6851 21.5182 15.6621 21.795 15.7832 22.0257C16.0773 22.5966 17.0692 22.9023 17.6921 22.6197C17.9862 22.4871 18.3322 22.1064 18.4072 21.8239C18.609 21.0914 18.3091 20.5205 17.3922 19.9092C16.8616 19.5574 16.7578 19.3671 16.9712 19.1537C17.1384 18.9865 17.3749 19.0096 17.6056 19.2114C17.8708 19.4305 18.1303 19.4421 18.2918 19.2345C18.361 19.148 18.4129 19.0384 18.4129 18.9865C18.4129 18.6289 17.7209 18.1733 17.1788 18.1733C16.9885 18.1733 16.7751 18.2252 16.5848 18.3117Z" fill="#002677" stroke="#002677" stroke-width="0.5"/>
<path d="M4.45599 22.7639C3.97733 22.9369 3.85622 23.3463 4.18494 23.6981C4.35795 23.8884 4.61746 23.9461 7.31066 24.4363C9.99808 24.9207 10.3037 24.9495 10.5517 24.7708C10.7651 24.6093 10.8574 24.2748 10.7363 24.0672C10.5229 23.6866 10.4825 23.675 7.07997 23.1099C5.09036 22.7754 4.60016 22.712 4.45599 22.7639Z" fill="#002677" stroke="#002677" stroke-width="0.5"/>
<path d="M12.9039 23.8193C12.7713 23.8769 12.5982 24.0038 12.5117 24.1076C12.2522 24.419 12.2176 24.644 12.2926 25.509C12.4368 27.2103 12.6444 29.321 12.679 29.4652C12.7424 29.7305 12.9327 30.0534 13.1692 30.3129C13.521 30.6935 13.9189 30.8435 15.0492 31.0107C15.5798 31.0857 16.3295 31.2068 16.7101 31.2702C17.8174 31.4606 18.6478 31.3625 19.0688 30.9877C19.2303 30.8435 19.3918 30.4571 19.3918 30.1976C19.3918 29.7305 18.8208 25.3937 18.7286 25.1745C18.446 24.4998 18.0538 24.3498 15.4587 23.9346C13.8612 23.6809 13.2615 23.652 12.9039 23.8193ZM14.7205 25.0649C16.9639 25.3937 17.4541 25.4975 17.5521 25.6762C17.604 25.7801 17.8808 28.2772 17.9846 29.6324L18.025 30.1687H17.8578C17.3733 30.163 14.536 29.6959 14.2303 29.569C14.1092 29.5171 14.0054 29.419 13.9708 29.3325C13.9074 29.1653 13.5094 25.5897 13.5094 25.1803C13.5094 24.9727 13.5267 24.9208 13.6132 24.9208C13.6651 24.9208 14.1669 24.9842 14.7205 25.0649Z" fill="#002677" stroke="#002677" stroke-width="0.5"/>
<path d="M4.64566 25.9012C4.26504 26.1318 4.35731 26.6566 4.81291 26.87C4.96285 26.945 5.95477 27.1468 7.36769 27.4063C10.0147 27.8908 10.6203 27.9369 10.874 27.7005C11.0643 27.5159 11.1047 27.3314 11.0067 27.0892C10.8625 26.7374 10.9548 26.7662 7.31002 26.1318C6.19699 25.9415 5.18199 25.7858 5.06089 25.7858C4.93401 25.7858 4.74947 25.8377 4.64566 25.9012Z" fill="#002677" stroke="#002677" stroke-width="0.5"/>
<path d="M4.82972 28.9288C4.72015 29.0326 4.68555 29.1307 4.68555 29.3094C4.68555 29.6439 4.90469 29.84 5.41796 29.9611C6.61749 30.2437 10.1181 30.8665 10.5679 30.8723C11.0754 30.8838 11.3753 30.6705 11.3753 30.3129C11.3753 29.8631 11.1446 29.7593 9.55867 29.4824C8.82626 29.3556 7.64979 29.1422 6.93468 29.0153C5.38335 28.7385 5.03157 28.7212 4.82972 28.9288Z" fill="#002677" stroke="#002677" stroke-width="0.5"/>
</svg>
