<svg width="68" height="65" viewBox="0 0 68 65" fill="none" xmlns="http://www.w3.org/2000/svg">
<path d="M34 64.4062C22.5 64.4062 12 58.4062 6.25 48.4062C0.5 38.5312 0.5 26.4062 6.25 16.4062C12 6.53125 22.5 0.40625 34 0.40625C45.375 0.40625 55.875 6.53125 61.625 16.4062C67.375 26.4062 67.375 38.5312 61.625 48.4062C55.875 58.4062 45.375 64.4062 34 64.4062ZM48.125 26.5312H48L50.125 24.4062L46 20.1562L43.875 22.2812L30 36.2812L24.125 30.4062L22 28.2812L17.75 32.4062L19.875 34.5312L27.875 42.5312L30 44.6562L32.125 42.5312L48.125 26.5312Z" fill="#FFB81C"/>
</svg>
