<svg width="52" height="35" viewBox="0 0 52 35" fill="none" xmlns="http://www.w3.org/2000/svg">
<g filter="url(#filter0_d_12003_3283)">
<path d="M21.25 0.366943L17.5 4.11694H16.3281L11.5625 8.64819L11.0156 9.11694H10.2344H7.5V19.1169H9.0625H9.84375L10.3906 19.6638L14.4531 23.7263L15 24.2732L16.3281 25.6013L18.0469 27.3201L19.8438 25.4451L21.1719 24.1169L22.5 25.4451L24.1406 27.0857L26.4844 24.7419L27.8125 23.4138L29.1406 24.7419L29.9219 25.5232L33.75 21.6951V21.5388L26.5625 14.3513L21.25 19.2732L19.8438 20.6013L18.5938 19.1169L13.5938 13.4919L12.3438 12.1638L13.6719 10.9138L24.2969 0.913818L24.8438 0.366943H25.625H33.125H33.8281L34.2969 0.913818L39.4531 5.36694H42.5H45.625H47.5H50V25.3669H42.5V24.1169H36.5625L31.1719 29.5076L29.8438 30.8357L28.5156 29.5076L27.8125 28.7263L25.4688 31.0701L24.1406 32.3982L22.8125 31.0701L21.1719 29.4294L19.375 31.3044L18.0469 32.6326L16.7188 31.3044L13.75 28.2576L12.4219 26.9294L11.875 26.3826L8.35938 22.8669H7.5V25.3669H0V5.36694H2.5H4.375H7.5H9.53125L14.2969 0.913818L14.8438 0.366943H15.625H21.25ZM42.5 20.3669V9.11694H38.75H37.9688L37.5 8.64819L32.3438 4.11694H26.3281L17.5781 12.3982L20.0781 15.2107L26.7969 9.03882L28.2031 7.78882L30.7031 10.5232L29.375 11.7732L29.2969 11.8513L37.7344 20.2888L37.8906 20.3669H42.5ZM5 21.6169C5 20.9919 4.375 20.3669 3.75 20.3669C3.04688 20.3669 2.5 20.9919 2.5 21.6169C2.5 22.3201 3.04688 22.8669 3.75 22.8669C4.375 22.8669 5 22.3201 5 21.6169ZM46.25 22.8669C46.875 22.8669 47.5 22.3201 47.5 21.6169C47.5 20.9919 46.875 20.3669 46.25 20.3669C45.5469 20.3669 45 20.9919 45 21.6169C45 22.3201 45.5469 22.8669 46.25 22.8669Z" fill="#3364FA"/>
</g>
<defs>
<filter id="filter0_d_12003_3283" x="0" y="0.366943" width="52" height="34.2656" filterUnits="userSpaceOnUse" color-interpolation-filters="sRGB">
<feFlood flood-opacity="0" result="BackgroundImageFix"/>
<feColorMatrix in="SourceAlpha" type="matrix" values="0 0 0 0 0 0 0 0 0 0 0 0 0 0 0 0 0 0 127 0" result="hardAlpha"/>
<feOffset dx="2" dy="2"/>
<feComposite in2="hardAlpha" operator="out"/>
<feColorMatrix type="matrix" values="0 0 0 0 0.721569 0 0 0 0 0.988235 0 0 0 0 0.74902 0 0 0 1 0"/>
<feBlend mode="normal" in2="BackgroundImageFix" result="effect1_dropShadow_12003_3283"/>
<feBlend mode="normal" in="SourceGraphic" in2="effect1_dropShadow_12003_3283" result="shape"/>
</filter>
</defs>
</svg>
