<svg width="42" height="38" viewBox="0 0 42 38" fill="none" xmlns="http://www.w3.org/2000/svg">
<g filter="url(#filter0_d_11966_7159)">
<path d="M20 10.8125L17.3438 8.15625L15.3906 6.28125C14.1406 5.03125 12.4219 4.25 10.5469 4.25C6.79688 4.25 3.75 7.375 3.75 11.125C3.75 13 4.45312 14.7188 5.70312 15.9688L7.57812 17.9219L20 30.2656L32.3438 17.9219L34.2188 15.9688C35.4688 14.7188 36.25 13 36.25 11.125C36.25 7.375 33.125 4.25 29.375 4.25C27.5 4.25 25.7812 5.03125 24.5312 6.28125L22.5781 8.15625L20 10.8125ZM22.5781 32.9219L20 35.5L17.3438 32.9219L5 20.5L3.04688 18.625C1.09375 16.6719 0 13.9375 0 11.125C0 5.26562 4.6875 0.5 10.5469 0.5C13.3594 0.5 16.0938 1.67188 18.0469 3.625L20 5.5L21.875 3.625C23.8281 1.67188 26.5625 0.578125 29.375 0.578125C35.2344 0.5 40 5.26562 40 11.125C40 13.9375 38.8281 16.6719 36.875 18.625L35 20.5L22.5781 32.9219Z" fill="#3364FA"/>
</g>
<defs>
<filter id="filter0_d_11966_7159" x="0" y="0.5" width="42" height="37" filterUnits="userSpaceOnUse" color-interpolation-filters="sRGB">
<feFlood flood-opacity="0" result="BackgroundImageFix"/>
<feColorMatrix in="SourceAlpha" type="matrix" values="0 0 0 0 0 0 0 0 0 0 0 0 0 0 0 0 0 0 127 0" result="hardAlpha"/>
<feOffset dx="2" dy="2"/>
<feComposite in2="hardAlpha" operator="out"/>
<feColorMatrix type="matrix" values="0 0 0 0 0.721569 0 0 0 0 0.988235 0 0 0 0 0.74902 0 0 0 1 0"/>
<feBlend mode="normal" in2="BackgroundImageFix" result="effect1_dropShadow_11966_7159"/>
<feBlend mode="normal" in="SourceGraphic" in2="effect1_dropShadow_11966_7159" result="shape"/>
</filter>
</defs>
</svg>
