<svg width="48" height="42" viewBox="0 0 48 42" fill="none" xmlns="http://www.w3.org/2000/svg">
<g filter="url(#filter0_d_11966_9517)">
<path d="M44.9062 17.1875C45.4531 17.8906 46 18.9062 46 20C46 22.3438 44.2031 23.9062 42.7188 24.7656C41.1562 25.7031 39.2812 26.25 37.7188 26.25H29.9062L22.5625 39.0625L22.0156 40H21H14.75H12.25L12.875 37.6562L16.1562 26.25H13.8125L10.6094 30.5469L10.0625 31.25H9.125H3.5H0.84375L1.70312 28.8281L4.59375 20L1.70312 11.25L0.84375 8.75H3.5H9.125H10.0625L10.6094 9.53125L13.8125 13.75H16.1562L12.875 2.42188L12.25 0H14.75H21H22.0156L22.5625 1.01562L29.9062 13.75H37.7188C39.2812 13.75 41.2344 14.4531 42.7188 15.3125C43.5 15.8594 44.2812 16.4062 44.9062 17.1875ZM40.7656 18.5156C39.6719 17.8906 38.4219 17.5 37.7188 17.5H28.8125H27.7188L27.1719 16.5625L19.9062 3.75H17.1719L20.4531 15.1562L21.1562 17.5H18.6562H12.875H11.9375L11.3125 16.7969L8.1875 12.5H6.07812L8.34375 19.4531L8.57812 20L8.34375 20.625L6.07812 27.5H8.1875L11.3125 23.2812L11.9375 22.5H12.875H18.6562H21.1562L20.4531 24.9219L17.1719 36.25H19.9062L27.1719 23.5156L27.7188 22.5H28.8125H37.7188C38.4219 22.5 39.75 22.1875 40.7656 21.5625C42.0156 20.8594 42.25 20.2344 42.25 20C42.25 20 42.1719 19.8438 41.9375 19.5312C41.7031 19.2188 41.3125 18.9062 40.7656 18.5156Z" fill="#3364FA"/>
</g>
<defs>
<filter id="filter0_d_11966_9517" x="0.84375" y="0" width="47.1562" height="42" filterUnits="userSpaceOnUse" color-interpolation-filters="sRGB">
<feFlood flood-opacity="0" result="BackgroundImageFix"/>
<feColorMatrix in="SourceAlpha" type="matrix" values="0 0 0 0 0 0 0 0 0 0 0 0 0 0 0 0 0 0 127 0" result="hardAlpha"/>
<feOffset dx="2" dy="2"/>
<feComposite in2="hardAlpha" operator="out"/>
<feColorMatrix type="matrix" values="0 0 0 0 0.721569 0 0 0 0 0.988235 0 0 0 0 0.74902 0 0 0 1 0"/>
<feBlend mode="normal" in2="BackgroundImageFix" result="effect1_dropShadow_11966_9517"/>
<feBlend mode="normal" in="SourceGraphic" in2="effect1_dropShadow_11966_9517" result="shape"/>
</filter>
</defs>
</svg>
