<svg width="47" height="42" viewBox="0 0 47 42" fill="none" xmlns="http://www.w3.org/2000/svg">
<g filter="url(#filter0_d_11966_9522)">
<path d="M15 0H30V5H35.625H37.5V6.875V18.9844L41.875 20.7812L44.2969 21.7969L42.6562 23.75L35.7812 31.875L32.8906 29.4531L38.125 23.2812L22.5 17.0312L6.79688 23.2812L12.0312 29.4531L9.14062 31.875L2.26562 23.75L0.625 21.7969L3.04688 20.7812L7.5 18.9844V6.875V5H9.375H15V0ZM33.75 17.5V8.75H11.25V17.5L21.7969 13.2812L22.5 13.0469L23.125 13.2812L33.75 17.5ZM6.17188 38.2031C4.60938 39.0625 2.42188 40 0 40V36.25C1.48438 36.25 3.04688 35.7031 4.29688 35C5.46875 34.2969 6.40625 33.4375 7.42188 32.5781V32.5L7.5 32.5781C8.51562 33.4375 9.45312 34.2969 10.625 35C11.875 35.7031 13.4375 36.25 14.9219 36.25C16.4844 36.25 18.0469 35.7031 19.2969 35C20.4688 34.2969 21.4062 33.4375 22.4219 32.5781V32.5L22.5 32.5781C23.5156 33.4375 24.4531 34.2969 25.625 35C26.875 35.7031 28.4375 36.25 29.9219 36.25C31.4844 36.25 33.0469 35.7031 34.2969 35C35.4688 34.2969 36.4062 33.4375 37.4219 32.5781V32.5L37.5 32.5781C38.5156 33.4375 39.4531 34.2969 40.625 35C41.875 35.7031 43.4375 36.25 45 36.25V40C42.5 40 40.3125 39.0625 38.75 38.2031C38.2812 37.9688 37.8125 37.6562 37.4219 37.4219C37.1094 37.6562 36.6406 37.9688 36.1719 38.2031C34.6094 39.0625 32.4219 40 29.9219 40C27.5 40 25.3125 39.0625 23.75 38.2031C23.2812 37.9688 22.8125 37.6562 22.4219 37.4219C22.1094 37.6562 21.6406 37.9688 21.1719 38.2031C19.6094 39.0625 17.4219 40 14.9219 40C12.5 40 10.3125 39.0625 8.75 38.2031C8.28125 37.9688 7.8125 37.6562 7.42188 37.4219C7.10938 37.6562 6.64062 37.9688 6.17188 38.2031Z" fill="#3364FA"/>
</g>
<defs>
<filter id="filter0_d_11966_9522" x="0" y="0" width="47" height="42" filterUnits="userSpaceOnUse" color-interpolation-filters="sRGB">
<feFlood flood-opacity="0" result="BackgroundImageFix"/>
<feColorMatrix in="SourceAlpha" type="matrix" values="0 0 0 0 0 0 0 0 0 0 0 0 0 0 0 0 0 0 127 0" result="hardAlpha"/>
<feOffset dx="2" dy="2"/>
<feComposite in2="hardAlpha" operator="out"/>
<feColorMatrix type="matrix" values="0 0 0 0 0.721569 0 0 0 0 0.988235 0 0 0 0 0.74902 0 0 0 1 0"/>
<feBlend mode="normal" in2="BackgroundImageFix" result="effect1_dropShadow_11966_9522"/>
<feBlend mode="normal" in="SourceGraphic" in2="effect1_dropShadow_11966_9522" result="shape"/>
</filter>
</defs>
</svg>
