<svg width="52" height="42" viewBox="0 0 52 42" fill="none" xmlns="http://www.w3.org/2000/svg">
<g filter="url(#filter0_d_11966_9507)">
<path d="M28.75 3.75H3.75V28.75H5.9375C7.26562 26.5625 9.6875 25 12.5 25C15.2344 25 17.6562 26.5625 18.9844 28.75H25H28.75V3.75ZM30 32.5H29.375H28.75H25H20C20 36.6406 16.6406 40 12.5 40C8.35938 40 5 36.6406 5 32.5H3.75H0V28.75V3.75V0H3.75H28.75H32.5V3.75V7.5H36.875H37.6562L38.2031 8.04688L46.9531 16.875L47.5 17.4219V18.125V28.75H48.125H50V32.5H48.125H45C45 36.6406 41.6406 40 37.5 40C33.3594 40 30 36.6406 30 32.5ZM36.0938 11.25H32.5V18.75H43.5938L36.0938 11.25ZM8.75 32.5C8.75 33.9062 9.45312 35.0781 10.625 35.7812C11.7188 36.4844 13.2031 36.4844 14.375 35.7812C15.4688 35.0781 16.25 33.9062 16.25 32.5C16.25 31.1719 15.4688 30 14.375 29.2969C13.2031 28.5938 11.7188 28.5938 10.625 29.2969C9.45312 30 8.75 31.1719 8.75 32.5ZM37.5 28.75C36.0938 28.75 34.9219 29.5312 34.2188 30.625C33.5156 31.7969 33.5156 33.2812 34.2188 34.375C34.9219 35.5469 36.0938 36.25 37.5 36.25C38.8281 36.25 40 35.5469 40.7031 34.375C41.4062 33.2812 41.4062 31.7969 40.7031 30.625C40 29.5312 38.8281 28.75 37.5 28.75Z" fill="#3364FA"/>
</g>
<defs>
<filter id="filter0_d_11966_9507" x="0" y="0" width="52" height="42" filterUnits="userSpaceOnUse" color-interpolation-filters="sRGB">
<feFlood flood-opacity="0" result="BackgroundImageFix"/>
<feColorMatrix in="SourceAlpha" type="matrix" values="0 0 0 0 0 0 0 0 0 0 0 0 0 0 0 0 0 0 127 0" result="hardAlpha"/>
<feOffset dx="2" dy="2"/>
<feComposite in2="hardAlpha" operator="out"/>
<feColorMatrix type="matrix" values="0 0 0 0 0.721569 0 0 0 0 0.988235 0 0 0 0 0.74902 0 0 0 1 0"/>
<feBlend mode="normal" in2="BackgroundImageFix" result="effect1_dropShadow_11966_9507"/>
<feBlend mode="normal" in="SourceGraphic" in2="effect1_dropShadow_11966_9507" result="shape"/>
</filter>
</defs>
</svg>
