<svg width="350" height="568" viewBox="0 0 350 568" fill="none" xmlns="http://www.w3.org/2000/svg">
<path d="M150.359 22.5103L150.954 27.9224H154.328L157.252 26.7949L159.727 22.0593L158.906 18.9686L152.754 11.8985L148.255 16.634L152.079 18.8227L150.359 22.5103ZM164.583 42.3014L169.876 41.9565L169.201 35.6292L160.865 38.3352L154.778 33.2548L149.604 32.2334L150.054 35.1649L154.778 37.9903L155.572 44.3176H160.64L164.583 42.2881V42.3014ZM151.404 47.0502V54.3325L153.878 54.6111L156.406 51.2816L157.252 46.8247L153.878 45.8696L151.404 47.0502ZM262.882 125.777L259.508 131.136L263.001 135.991L271.562 130.459L276.061 131.812L277.185 126.626H283.047L282.253 121.89L276.167 120.763L271.774 118.163L266.031 120.763L263.663 115.576L259.495 120.656L262.869 125.79L262.882 125.777ZM165.483 12.5087L160.415 15.5596L165.033 18.6105L163.789 19.738L160.296 18.1595L163.789 23.0144L160.415 23.5848L161.54 28.8907L159.74 31.7161L160.534 34.0905L165.602 33.2946L169.876 32.7242L169.426 29.2223L171.9 24.0358L169.426 20.4278L173.594 15.0157L173.025 6.88442L171 8.91393L170.431 6.88442L174.824 2.02951L168.288 0L152.754 9.03331L156.803 13.3178L165.469 12.522L165.483 12.5087ZM114.474 48.6287L124.61 43.0973L122.466 39.4892L119.542 39.0382L118.007 36.5577L110.306 40.3913L108.612 45.5778L110.531 48.6287H114.474ZM125.906 31.3049L127.481 30.6284L127.931 33.5599L124.94 35.5894L126.343 38.2954H129.161L128.711 40.378L130.736 41.9565H137.828L138.225 40.5504L140.422 40.378L139.403 36.5445L136.306 35.019V32.7109L134.454 33.0558V35.0853L135.354 36.8363L134.11 37.2342L132.588 36.1067L131.861 34.0772L129.664 32.2732L129.942 29.6733L130.445 28.3734L129.651 25.7204L125.311 26.2908L124.133 28.5989L121.037 28.7713V31.6498L122.889 31.7028L125.88 31.3049H125.906ZM349.828 370.751L347.261 365.458L346.666 362.898H341.413L338.409 359.741H335.71L329.702 350.867H322.491L314.062 348.001C313.798 347.909 313.507 347.948 313.269 348.108L311.919 349.036C311.39 349.408 310.649 349.089 310.53 348.452L309.947 345.269C309.894 345.004 309.722 344.765 309.484 344.632L299.137 339.167C298.899 339.034 298.621 339.034 298.37 339.141L297.179 339.658C296.861 339.791 296.649 340.096 296.636 340.441L296.557 342.125C296.53 342.629 296.094 343.014 295.591 342.974L295.287 342.948C294.863 342.921 294.519 342.589 294.466 342.152L294.149 339.393C294.122 339.127 294.202 338.862 294.387 338.676L295.366 337.628C295.908 337.058 295.498 336.116 294.718 336.116H289.809C289.412 336.116 289.068 336.382 288.949 336.753L287.85 340.374C287.731 340.785 287.321 341.051 286.898 341.011L285.548 340.865C285.177 340.825 284.873 340.56 284.78 340.202L284.159 337.788C284.079 337.496 284.159 337.191 284.344 336.978L289.65 330.837C289.795 330.664 289.875 330.439 289.862 330.2L289.769 328.555C289.742 328.078 289.345 327.706 288.869 327.706C288.512 327.706 288.194 327.494 288.049 327.176L285.588 321.711C285.535 321.591 285.508 321.472 285.508 321.339V320.305C285.508 320.039 285.389 319.787 285.177 319.615L276.392 312.372C276.259 312.266 276.1 312.2 275.928 312.173L262.538 310.582C262.339 310.555 262.154 310.462 262.009 310.329L251.383 299.678C251.304 299.598 251.211 299.532 251.106 299.492L249.24 298.67C249.002 298.564 248.724 298.564 248.486 298.683L247.903 298.975C247.268 299.293 246.541 298.789 246.607 298.086L246.818 295.897C246.871 295.42 246.527 294.982 246.038 294.916L241.433 294.319C241.182 294.292 240.97 294.16 240.824 293.947L238.31 290.432C238.138 290.194 237.874 290.061 237.583 290.061H234.076C233.825 290.061 233.6 290.167 233.428 290.339L231.496 292.396C231.271 292.621 230.954 292.727 230.636 292.648L227.024 291.799C226.772 291.746 226.561 291.573 226.441 291.361L226.084 290.711C225.886 290.339 225.436 290.154 225.026 290.286L219.23 292.104C218.648 292.289 218.066 291.852 218.066 291.255V290.207C218.066 289.782 217.761 289.411 217.338 289.331L212.972 288.509C212.68 288.456 212.442 288.27 212.323 288.005L211.556 286.307C211.41 285.989 211.093 285.776 210.735 285.776H210.55C210.061 285.776 209.65 286.174 209.65 286.678V287.7C209.65 287.965 209.531 288.217 209.333 288.39L206.223 291.016C206.025 291.188 205.906 291.44 205.906 291.706V297.476C205.906 297.834 205.694 298.152 205.363 298.298L204.344 298.749C203.881 298.948 203.339 298.736 203.154 298.259L202.214 295.911C202.082 295.579 202.161 295.194 202.413 294.942L204.265 293.085C204.45 292.9 204.543 292.648 204.53 292.396L204.265 288.23C204.265 288.071 204.291 287.912 204.358 287.779L205.099 286.28C205.39 285.684 204.966 284.98 204.305 284.98H204.239C204.053 284.98 203.868 285.034 203.722 285.153L196.776 290.127C196.657 290.207 196.511 290.273 196.366 290.286L193.574 290.658C193.296 290.698 193.058 290.857 192.912 291.096L192.251 292.223C192.145 292.409 191.973 292.555 191.761 292.621L189.869 293.258C189.564 293.364 189.34 293.616 189.273 293.921L188.096 299.466C188.056 299.651 187.963 299.811 187.818 299.943L183.65 303.737C183.319 304.042 182.816 304.042 182.472 303.763L180.62 302.211C180.461 302.079 180.263 301.999 180.051 301.999H178.145C177.987 301.999 177.828 302.039 177.682 302.132L175.076 303.71C174.824 303.87 174.507 303.883 174.229 303.75L170.074 301.787C169.756 301.641 169.558 301.323 169.558 300.978V292.17C169.558 291.998 169.505 291.838 169.426 291.692L167.56 288.708C167.401 288.456 167.123 288.297 166.832 288.283L163.233 288.164C163.048 288.164 162.863 288.204 162.717 288.31L160.494 289.756C160.177 289.968 159.753 289.942 159.449 289.703L158.787 289.172C158.576 289 158.457 288.748 158.457 288.469V286.174C158.457 285.936 158.549 285.723 158.708 285.551L160.441 283.76C160.613 283.588 160.693 283.362 160.693 283.123L160.574 277.061C160.574 276.491 160.044 276.08 159.489 276.199L154.99 277.194C154.633 277.274 154.368 277.552 154.302 277.924L153.733 281.266C153.68 281.545 153.521 281.77 153.27 281.903L149.207 284.065C148.983 284.185 148.718 284.198 148.48 284.118L144.801 282.752L140.594 275.974V263.478L141.798 258.066L146.574 255.891C146.693 255.838 146.813 255.811 146.945 255.811H148.89C149.618 255.811 150.279 255.427 150.65 254.803L152.436 251.712C152.635 251.368 153.018 251.142 153.415 251.142H159.092C159.184 251.142 159.264 251.142 159.356 251.116L163.974 250.028C164.212 249.975 164.464 249.988 164.675 250.094L169.24 252.057C169.479 252.163 169.717 252.217 169.968 252.217L176.518 252.429C177.709 252.469 178.688 251.474 178.609 250.28C178.609 250.068 178.516 249.855 178.397 249.683L176.425 246.95C175.949 246.3 176.293 245.372 177.074 245.173L180.673 244.271C180.792 244.244 180.924 244.231 181.043 244.244L187.646 244.801C187.911 244.828 188.162 244.934 188.36 245.133L191.245 248.025C191.417 248.197 191.655 248.317 191.893 248.343L193.997 248.635C194.487 248.701 194.963 248.449 195.175 247.998L195.797 246.672C196.022 246.208 196.511 245.956 197.014 246.035L199.25 246.42C199.488 246.46 199.7 246.579 199.872 246.751L203.259 250.28C203.418 250.452 203.537 250.678 203.564 250.903L204.331 256.315C204.384 256.673 204.53 257.018 204.755 257.297L208.552 262.059C208.552 262.059 208.632 262.152 208.671 262.205L212.535 266.211C212.707 266.397 212.958 266.489 213.21 266.489L216.491 266.383C216.954 266.37 217.338 265.999 217.351 265.521L217.603 259.287C217.603 258.982 217.563 258.676 217.444 258.398L215.3 253.437C215.247 253.317 215.208 253.185 215.181 253.052L214.281 248.781C214.215 248.463 214.017 248.197 213.752 248.038L211.992 247.003C211.767 246.871 211.582 246.659 211.503 246.407L207.666 235.516C207.533 235.118 207.613 234.694 207.891 234.375L217.087 224.042C217.166 223.963 217.245 223.883 217.351 223.83L219.799 222.357C220.064 222.198 220.249 221.946 220.315 221.654L220.844 219.532C220.911 219.254 221.083 219.015 221.321 218.856L225.277 216.256C225.581 216.057 225.767 215.738 225.793 215.38L226.031 211.666C226.045 211.414 225.978 211.175 225.846 210.963L222.842 206.453C222.79 206.36 222.737 206.267 222.71 206.174L221.44 202.208C221.44 202.208 221.4 202.076 221.4 202.009L220.368 194.13L221.837 196.916C221.837 196.916 221.877 197.008 221.903 197.062L223.054 200.219C223.054 200.219 223.094 200.325 223.12 200.378L223.703 201.452C224.166 202.301 225.409 202.222 225.767 201.32L226.614 199.091C226.759 198.72 226.693 198.308 226.455 198.003L225.118 196.213C224.801 195.788 224.814 195.204 225.158 194.807L228.611 190.655C228.903 190.31 228.956 189.819 228.757 189.421L227.778 187.458C227.5 186.914 227.712 186.237 228.254 185.946L239.554 179.751C239.951 179.539 240.176 179.101 240.136 178.65L239.951 176.501C239.925 176.143 239.726 175.825 239.422 175.639L239.038 175.4C238.138 174.843 237.755 173.729 238.099 172.721L239.184 169.537C239.263 169.285 239.395 169.06 239.554 168.847L245.733 161.101C245.853 160.955 245.932 160.782 245.958 160.597L246.567 157.4C246.62 157.121 246.779 156.856 247.017 156.697L249.28 155.052C249.69 154.76 250.232 154.76 250.629 155.052L251 155.331C251.436 155.662 251.582 156.259 251.33 156.75L250.748 157.93C250.537 158.342 250.603 158.832 250.907 159.191L253.183 161.844C253.673 162.414 254.572 162.361 254.996 161.737L257.126 158.541C257.338 158.222 257.377 157.811 257.219 157.453L256.875 156.644C256.689 156.206 256.795 155.689 257.139 155.357L263.16 149.706C263.517 149.361 263.623 148.831 263.411 148.38L262.63 146.748C262.353 146.165 261.638 145.926 261.069 146.231L255.763 149.07C255.512 149.202 255.207 149.242 254.93 149.162L251.37 148.181C251.132 148.115 250.934 147.982 250.775 147.796L247.718 143.936C247.612 143.803 247.533 143.644 247.493 143.472L246.686 139.678C246.66 139.572 246.66 139.466 246.66 139.36L246.713 138.484C246.752 137.821 246.236 137.264 245.575 137.264H240.996C240.586 137.264 240.203 137.489 240.004 137.848L227.725 159.536C227.394 160.106 226.653 160.292 226.097 159.92C225.648 159.615 225.462 159.031 225.674 158.527L232.488 142.358C232.608 142.092 232.819 141.88 233.084 141.761L235.783 140.567C236.167 140.394 236.432 140.023 236.458 139.599L236.67 136.136C236.696 135.725 236.934 135.367 237.305 135.181L252.468 127.647C252.667 127.541 252.839 127.395 252.945 127.196L256.795 120.484C256.795 120.484 256.848 120.404 256.875 120.365L261.294 114.555C261.506 114.263 261.585 113.891 261.479 113.547L260.288 109.355C260.196 109.023 259.944 108.745 259.627 108.612L254.969 106.702C254.546 106.529 254.069 106.622 253.739 106.941L248.221 112.353C247.89 112.684 247.387 112.764 246.964 112.578L246.607 112.419C245.932 112.114 245.707 111.252 246.17 110.668L247.811 108.559C247.917 108.426 248.036 108.32 248.181 108.254L250.51 107.034C251.145 106.702 251.317 105.893 250.894 105.322L250.656 105.017C250.391 104.672 249.954 104.5 249.518 104.593L243.246 105.906C243.1 105.933 242.942 105.933 242.783 105.906L236.035 104.526C235.783 104.473 235.571 104.341 235.399 104.155L230.954 99.0083C230.887 98.9287 230.808 98.8491 230.715 98.7961L221.162 92.6014C219.905 91.7923 218.264 92.7739 218.397 94.2728L218.926 100.454C218.966 100.879 218.754 101.29 218.397 101.515L216.663 102.616C216.332 102.829 215.922 102.855 215.565 102.683L210.709 100.375C210.524 100.282 210.365 100.149 210.246 99.9766L207.229 95.4401C206.805 94.8034 206.025 94.4983 205.284 94.6973L204.635 94.8697C204.04 95.0289 203.405 94.8697 202.955 94.4452L200.348 91.9912C199.568 91.2617 198.324 91.3678 197.676 92.23L196.101 94.3524C195.678 94.9095 194.976 95.1881 194.288 95.0421L190.901 94.3391C189.631 94.0738 188.506 95.2013 188.784 96.4747L189.22 98.5308C189.247 98.6767 189.313 98.8093 189.392 98.9287L193.336 104.858C193.6 105.256 193.587 105.773 193.309 106.158L191.179 109.143C190.927 109.501 190.901 109.978 191.113 110.363L191.933 111.849C192.131 112.207 192.515 112.432 192.925 112.432H197.318C197.795 112.432 198.218 112.724 198.39 113.175L200.309 118.348C200.441 118.693 200.388 119.091 200.176 119.396L194.963 126.904C194.778 127.169 194.712 127.514 194.791 127.833L196.286 133.815C196.313 133.908 196.339 133.988 196.379 134.067L199.488 140.05C199.74 140.527 199.621 141.124 199.197 141.469L197.411 142.915C197.027 143.233 196.485 143.26 196.075 142.981L188.016 137.688C187.752 137.516 187.58 137.237 187.514 136.932L186.733 132.489C186.706 132.369 186.706 132.25 186.733 132.117L187.117 129.544C187.222 128.854 186.68 128.231 185.992 128.231H179.733C179.574 128.231 179.429 128.204 179.283 128.138L171.688 124.914L163.829 121.625C163.564 121.519 163.273 121.505 163.008 121.598L160.455 122.5C159.145 122.965 157.768 122.049 157.663 120.67L157.491 118.454C157.451 117.871 157.16 117.34 156.71 116.969L155.307 115.841C155.215 115.762 155.109 115.709 155.003 115.669L152.132 114.754C151.708 114.621 151.444 114.223 151.457 113.785L151.854 106.45C151.854 106.224 151.946 106.012 152.105 105.853L161.103 95.8115C161.103 95.8115 161.195 95.6921 161.235 95.6258L163.167 92.3096C163.246 92.177 163.339 92.0576 163.445 91.9382L167.838 87.5343C168.195 87.1761 168.38 86.6986 168.367 86.2078L168.261 82.8518C168.261 82.613 168.38 82.3875 168.579 82.2682L174.904 78.4081C175.062 78.3153 175.182 78.1428 175.208 77.9571L176.333 71.2982C176.346 71.2186 176.333 71.139 176.333 71.0462L175.168 65.4882C175.168 65.4882 175.168 65.4219 175.168 65.3954L174.917 61.7741C174.89 61.3894 175.195 61.071 175.578 61.071H180.686C180.818 61.071 180.951 61.1108 181.056 61.1772L188.175 65.979C188.175 65.979 188.268 66.0586 188.307 66.0984L191.774 70.2635C191.92 70.436 191.959 70.6615 191.893 70.887L190.676 74.8399C190.676 74.8399 190.649 74.946 190.649 74.9991L190.517 77.3071C190.517 77.4265 190.53 77.5326 190.583 77.6387L191.192 78.8458C191.377 79.2305 191.166 79.6815 190.755 79.7744L187.05 80.6764C186.786 80.7427 186.574 80.9682 186.548 81.2468L186.217 84.4038C186.177 84.8017 186.495 85.1334 186.892 85.1334L191.973 85.0007C192.092 85.0007 192.211 84.9609 192.303 84.8946L195.082 83.1304C195.307 82.9845 195.598 82.9977 195.823 83.1569L203.193 88.4893C203.431 88.6618 203.722 88.7812 204.027 88.821L211.357 89.7362C211.767 89.7893 212.178 89.6964 212.522 89.4842L213.051 89.1526C214.268 88.3965 214.03 84.2446 212.733 83.6477C212.733 83.6477 206.448 80.3846 206.713 80.4641L212.376 82.2549C213.845 82.7192 215.393 81.7774 215.671 80.2519V80.1856C215.883 79.0714 215.327 77.9438 214.308 77.4398L204.98 72.7706C203.815 72.1869 203.22 70.8605 203.55 69.6003C203.643 69.2289 204.04 69.0166 204.397 69.1493L210.987 71.4706C211.41 71.6165 211.847 71.3115 211.86 70.8737L211.979 66.6953C211.979 66.4831 211.887 66.2708 211.714 66.1515L208.737 63.9495C208.605 63.8566 208.459 63.8036 208.301 63.8169L203.101 64.2281C202.929 64.2413 202.77 64.1883 202.637 64.0821L192.105 55.4335C192.105 55.4335 191.999 55.3539 191.933 55.3274L182.605 51.4673C182.605 51.4673 182.552 51.4408 182.525 51.4275L176.505 47.8991C176.505 47.8991 176.372 47.8328 176.306 47.8195L167.229 45.9094C167.137 45.8961 167.057 45.8961 166.965 45.9094L160.23 47.2889C159.938 47.342 159.727 47.594 159.7 47.8858L159.158 55.2345C159.145 55.4202 159.211 55.5927 159.33 55.7253L165.324 62.3047C165.403 62.3843 165.456 62.4904 165.483 62.6098L167.044 69.8656C167.084 70.0248 167.044 70.1839 166.978 70.3299L165.258 73.4338C165.046 73.8185 164.543 73.8848 164.226 73.593L160.587 70.0646C160.587 70.0646 160.481 69.9319 160.441 69.8523L157.385 62.8485C157.358 62.7822 157.319 62.7159 157.279 62.6496L154.434 57.9671C153.971 57.1977 152.965 56.959 152.198 57.4232C151.841 57.6487 151.576 58.0069 151.47 58.4181L150.557 62.0792C150.478 62.4108 150.504 62.7557 150.623 63.074L152.37 67.5045C152.37 67.5045 152.396 67.5708 152.41 67.6106L153.217 70.1441C153.362 70.5952 153.296 71.0992 153.045 71.4972L151.192 74.4552C150.65 75.3174 149.459 75.4766 148.718 74.7868L146.389 72.6114C146.019 72.2665 145.503 72.1073 145.013 72.2002L139.376 73.1685C138.979 73.2348 138.569 73.1553 138.225 72.9298L134.639 70.6084C134.295 70.3829 133.885 70.3033 133.488 70.3697L131.106 70.7809C130.326 70.9135 129.757 71.59 129.757 72.3859V74.3358C129.757 74.9991 129.108 75.4633 128.486 75.2511L127.097 74.7868C126.793 74.6807 126.555 74.4419 126.475 74.1236L125.748 71.5237C125.642 71.1257 125.284 70.8472 124.874 70.8207L118.364 70.4625C117.848 70.436 117.451 70.0115 117.451 69.4942V68.9769C117.451 68.6452 117.623 68.3401 117.888 68.1677L118.96 67.4779C119.489 67.133 119.555 66.3902 119.092 65.9525L112.78 60.0231L107.289 55.0621C106.985 54.7835 106.535 54.7305 106.178 54.9294L104.788 55.6988C104.378 55.9243 103.862 55.8315 103.571 55.46L100.395 51.5071C100.395 51.5071 100.303 51.401 100.25 51.3612L97.577 49.2256C97.4182 49.0929 97.2065 49.0266 97.008 49.0134L88.1031 48.7348C87.7723 48.7348 87.4679 48.5491 87.2959 48.2573L83.8556 42.3279C83.8556 42.3279 83.7895 42.2351 83.7498 42.182L78.6555 36.1996C78.5894 36.12 78.5365 36.0271 78.4968 35.9343L74.5404 26.1051C74.514 26.0255 74.4875 25.9592 74.4743 25.8796L73.6671 19.9502C73.6142 19.5921 73.3761 19.3003 73.0453 19.1676L62.8303 15.3208C62.8303 15.3208 62.7641 15.2943 62.7244 15.2678L55.05 11.2751C54.8118 11.1424 54.5207 11.1291 54.2693 11.222L52.8006 11.7791C52.4698 11.8985 52.2316 12.1903 52.1787 12.5485L51.3716 18.0799C51.3716 18.0799 51.3716 18.1727 51.3716 18.2258V21.1839C51.3716 21.542 51.1731 21.8736 50.8555 22.0461L49.0428 23.0011C48.7252 23.1736 48.3415 23.147 48.0504 22.9348L44.5969 20.5471C44.3323 20.3614 44.1735 20.0696 44.1735 19.7513V15.3473C44.1735 14.7106 43.578 14.2464 42.9561 14.4055L40.3892 15.0953C39.9658 15.2147 39.6747 15.5861 39.6747 16.0371V22.4705C39.6747 22.696 39.7541 22.9083 39.8996 23.0807L43.1943 27.1265C43.4986 27.4979 43.4854 28.0417 43.1546 28.3999C42.4401 29.1692 41.3022 30.4161 41.1566 30.7212C40.7861 30.3763 37.1871 29.0233 35.9168 28.5458C35.639 28.4397 35.4273 28.2142 35.3346 27.9224L34.4878 25.1765C34.3555 24.7653 33.9718 24.4868 33.5351 24.4868L24.5243 24.7388C24.0744 24.7388 23.6906 25.0704 23.6113 25.5082L22.2881 31.9814C22.2616 32.0875 22.2616 32.1936 22.2881 32.2865L22.9894 38.0169C23.0158 38.2026 22.9894 38.3883 22.8967 38.5474L20.2636 44.0921C20.1048 44.4237 20.1445 44.7952 20.3695 45.087C20.8987 45.79 20.2901 46.7716 19.43 46.6257L8.63286 44.7952C8.51378 44.7686 8.39469 44.7288 8.30207 44.6758L1.88465 40.8157C1.38184 40.5106 0.74671 40.7229 0.508538 41.2535L0.0851204 42.1953C-0.113357 42.633 0.045425 43.1503 0.455611 43.4024L12.9861 51.3082C13.0655 51.3612 13.1581 51.401 13.2508 51.4275L27.9645 55.407C28.0704 55.4335 28.1762 55.4468 28.2821 55.4335L36.9621 54.8764C37.3459 54.8499 37.7031 55.0488 37.8751 55.3937L39.9128 59.2405C40.0584 59.5058 40.3098 59.6915 40.6009 59.7446L44.888 60.4741C45.2056 60.5272 45.4702 60.7394 45.6025 61.0312L48.2224 66.8412C48.2224 66.8412 48.2489 66.9075 48.2753 66.9341L53.8195 76.2857C53.9121 76.4317 53.9518 76.6041 53.9518 76.7765V86.7517C53.9518 86.8445 53.9385 86.9506 53.9121 87.0435L51.9141 93.5034C51.8744 93.6228 51.8611 93.7422 51.8744 93.8616L52.4433 101.502C52.4566 101.701 52.536 101.887 52.6551 102.046L56.9422 107.312C57.0612 107.458 57.1274 107.63 57.1539 107.816L58.1595 116.279C58.1595 116.372 58.1595 116.465 58.1595 116.558L56.7437 124.49C56.704 124.715 56.7437 124.954 56.8628 125.153L59.6017 129.822C59.6547 129.915 59.6944 130.008 59.7208 130.114L61.5601 138.922C61.613 139.161 61.5997 139.413 61.5468 139.638L61.044 141.535C60.9382 141.92 60.7 142.265 60.356 142.477L57.2597 144.4C56.8098 144.679 56.2409 144.719 55.7645 144.48C54.7589 144.002 53.6077 144.692 53.5284 145.793L52.9594 154.322C52.9462 154.521 52.8932 154.72 52.8138 154.893L46.4758 168.184C46.3832 168.37 46.3303 168.582 46.3303 168.781L46.0656 174.312C46.0524 174.618 45.9465 174.909 45.7613 175.161L42.4004 179.778C42.1358 180.149 42.0432 180.6 42.1358 181.051L43.1811 185.773L43.8559 189.05C43.9088 189.275 43.8956 189.501 43.8559 189.726L42.9826 193.467C42.9165 193.759 42.9297 194.064 43.0223 194.342L46.9125 205.604C46.9125 205.604 46.9389 205.67 46.9389 205.71L48.0901 213.377C48.1165 213.536 48.2092 213.696 48.3415 213.788L53.7401 217.489C53.7401 217.489 53.8591 217.595 53.8988 217.648L59.5488 226.218C59.6414 226.35 59.787 226.443 59.9458 226.483L69.6579 228.221C69.6579 228.221 69.7902 228.26 69.8432 228.287L89.1351 239.005C89.2278 239.058 89.3204 239.084 89.4262 239.084H96.1215C96.3465 239.084 96.5449 238.965 96.6508 238.779L97.7226 236.843C97.8681 236.577 98.1857 236.471 98.4635 236.577L105.622 239.336C105.728 239.376 105.807 239.443 105.873 239.522L110.412 245.306C110.597 245.531 110.584 245.863 110.385 246.088L107.924 248.807C107.805 248.94 107.739 249.139 107.779 249.312L110.134 262.868L116.141 272.658L118.1 270.548L114.342 263.478L112.145 252.177C112.053 251.712 112.502 251.341 112.939 251.487L114.5 252.044L119.899 266.489L125.007 271.901L126.211 279.582L128.619 285.816L144.682 291.772L147.236 290.751C147.514 290.631 147.845 290.671 148.096 290.857L152.37 293.934C152.449 294.001 152.555 294.04 152.648 294.067L158.814 295.791C158.906 295.818 158.999 295.858 159.078 295.911L164.212 299.386C164.398 299.519 164.543 299.718 164.583 299.943L165.337 303.445C165.39 303.671 165.522 303.87 165.708 304.002L173.594 309.321C173.898 309.534 174.308 309.52 174.613 309.308L177.643 307.133C177.92 306.934 178.278 306.907 178.569 307.066L179.945 307.769C180.382 307.995 180.554 308.512 180.342 308.95L179.27 311.192C179.138 311.457 179.151 311.775 179.31 312.041L181.149 315.118C181.255 315.291 181.295 315.503 181.268 315.702L179.839 325.902C179.826 326.022 179.786 326.128 179.733 326.221L178.119 329.033C178.119 329.033 178.092 329.099 178.066 329.126L175.909 334.166C175.817 334.379 175.645 334.551 175.446 334.631L172.006 336.103C171.728 336.222 171.543 336.461 171.477 336.753L170.577 341.422C170.537 341.608 170.445 341.78 170.299 341.913L166.978 344.99C166.753 345.203 166.647 345.508 166.7 345.813L167.507 350.097C167.586 350.548 167.997 350.867 168.46 350.827L169.545 350.734C170.299 350.668 170.775 351.517 170.352 352.14L165.853 358.719L169.571 366.028C169.571 366.028 169.611 366.121 169.624 366.161L173.713 377.012C173.766 377.157 173.845 377.29 173.951 377.41L187.315 392.704C187.5 392.916 187.619 393.181 187.633 393.473L187.99 397.877C188.03 398.328 188.294 398.726 188.691 398.938L202.876 406.473C203.008 406.539 203.114 406.632 203.22 406.738L210.682 414.644C210.907 414.882 211.04 415.188 211.04 415.519L211.767 440.682C211.767 440.682 211.767 440.762 211.767 440.815L210.285 463.325C210.285 463.418 210.285 463.524 210.299 463.617L211.728 472.677C211.754 472.863 211.741 473.049 211.701 473.234L209.849 480.079C209.822 480.158 209.809 480.225 209.809 480.304L208.79 491.725C208.79 491.858 208.751 491.991 208.698 492.11L206.686 496.965C206.581 497.217 206.554 497.482 206.607 497.748L209.028 509.208C209.148 509.765 209.597 510.177 210.166 510.243L211.741 510.429C212.442 510.508 212.945 511.132 212.905 511.835L211.873 527.779C211.82 528.509 211.198 529.066 210.471 529.013C209.836 528.973 209.267 529.384 209.108 530.008L208.605 531.931C208.446 532.554 208.751 533.204 209.346 533.47L210.14 533.828C210.669 534.067 210.987 534.61 210.921 535.194L210.457 539.081C210.431 539.253 210.457 539.425 210.497 539.585L212.469 546.801C212.508 546.933 212.561 547.066 212.641 547.185L216.359 552.783C216.359 552.783 216.451 552.903 216.504 552.969L219.534 556.152C219.534 556.152 219.587 556.205 219.601 556.232L221.241 558.275C221.718 558.858 222.591 558.938 223.147 558.434L223.954 557.704C224.51 557.214 225.356 557.267 225.846 557.837L227.024 559.217C227.328 559.588 227.421 560.092 227.249 560.543L226.15 563.488C225.912 564.138 226.203 564.854 226.825 565.146L230.861 567.069C231.218 567.242 231.642 567.242 231.999 567.069L235.995 565.146C237.067 564.629 236.961 563.077 235.836 562.692L233.203 561.816C232.832 561.697 232.541 561.419 232.396 561.06L229.167 553.048L227.156 548.273C226.918 547.716 227.09 547.079 227.566 546.708L228.85 545.726C229.141 545.501 229.326 545.169 229.366 544.798L229.71 541.243C229.749 540.898 229.908 540.58 230.173 540.354L235.32 536.043C235.836 535.619 235.942 534.862 235.571 534.305L233.772 531.546C233.693 531.427 233.6 531.334 233.507 531.241L230.424 528.721C229.948 528.336 229.802 527.673 230.067 527.116L231.192 524.768C231.337 524.463 231.589 524.224 231.906 524.105L234.592 523.07C235.042 522.898 235.36 522.5 235.426 522.022L236.617 513.347C236.643 513.121 236.617 512.896 236.537 512.684L234.553 507.55C234.301 506.9 234.606 506.157 235.241 505.866L241.896 502.828C242.373 502.616 242.664 502.138 242.664 501.621V499.021C242.664 498.331 243.18 497.761 243.868 497.708L257.02 496.527C257.444 496.487 257.814 496.262 258.026 495.891L261.506 490.147C261.744 489.762 261.757 489.285 261.572 488.887L257.258 479.853C257.047 479.416 257.1 478.898 257.377 478.5L258.224 477.333C258.595 476.816 259.296 476.643 259.865 476.922L266.587 480.172C267.01 480.371 267.513 480.344 267.897 480.079L279.131 472.478C279.236 472.412 279.316 472.332 279.395 472.239L290.444 459.121C290.602 458.935 290.708 458.696 290.748 458.444L292.495 445.922C292.495 445.922 292.495 445.856 292.508 445.829L293.566 440.775C293.646 440.391 293.897 440.046 294.254 439.873L300.341 436.756C300.407 436.716 300.473 436.69 300.553 436.677L308.465 434.223C308.624 434.169 308.783 434.156 308.955 434.169L316.206 434.713C316.59 434.74 316.973 434.594 317.251 434.315L324.688 426.728C324.846 426.569 324.965 426.37 325.018 426.144L328.062 414.79C328.062 414.79 328.075 414.723 328.088 414.697L330.761 400.57C330.774 400.49 330.801 400.397 330.84 400.318L333.235 394.375C333.302 394.203 333.407 394.057 333.54 393.924L344.668 383.06C344.668 383.06 344.773 382.954 344.813 382.888L349.749 376.096C349.907 375.871 350 375.592 350 375.314V371.387C350 371.188 349.96 370.989 349.868 370.804L349.828 370.751ZM144.656 57.1447L145.503 59.1211L146.852 57.7681L149.155 55.3407V47.1563L146.058 46.7053L143.306 47.6604L141.057 51.2153L143.253 53.6958L144.656 57.1447ZM137.114 46.9308L133.29 48.1777L124.398 45.5778L118.02 48.7348V53.8152L116.631 59.7976L122.492 64.0821L123.167 67.0137H131.609L134.877 65.3158L139.27 69.9452L142.764 68.3667L142.195 63.4056L137.696 58.7762L137.127 46.9175L137.114 46.9308Z" fill="white"/>
<path d="M211.87 134.517C211.87 141.033 200.7 153.134 200.7 153.134C200.7 153.134 189.529 141.033 189.529 134.517C189.529 128.35 194.533 123.347 200.7 123.347C206.866 123.347 211.87 128.35 211.87 134.517Z" fill="#3364FA"/>
<path d="M242.899 164.304C242.899 170.82 231.729 182.922 231.729 182.922C231.729 182.922 220.559 170.82 220.559 164.304C220.559 158.138 225.562 153.134 231.729 153.134C237.896 153.134 242.899 158.138 242.899 164.304Z" fill="#B8FCBF"/>
<path d="M249.104 475.829C249.104 482.345 237.934 494.446 237.934 494.446C237.934 494.446 226.764 482.345 226.764 475.829C226.764 469.662 231.767 464.659 237.934 464.659C244.101 464.659 249.104 469.662 249.104 475.829Z" fill="#EAEE6F"/>
<path d="M229.134 277.314L231.739 274.926L233.74 275.811L238.46 274.918L245.169 278.07L235.124 283.128L227.222 283.36L226.876 281.53L231.366 279.418L229.134 277.314Z" fill="white"/>
<path d="M219.665 282.263L215.983 284.042L216.933 286.028L220.912 285.817L222.278 283.934L219.665 282.263Z" fill="white"/>
<path d="M202.398 269.108L195.34 275.075L196.681 275.979L203.244 273.58L213.018 275.783L217.357 280.173L226.179 277.347L226.885 274.897L214.747 272.562L202.398 269.108Z" fill="white"/>
<path d="M231.729 266.077C231.729 272.593 220.559 284.694 220.559 284.694C220.559 284.694 209.389 272.593 209.389 266.077C209.389 259.911 214.392 254.907 220.559 254.907C226.726 254.907 231.729 259.911 231.729 266.077Z" fill="#ED651F"/>
</svg>
