<svg width="42" height="45" viewBox="0 0 42 45" fill="none" xmlns="http://www.w3.org/2000/svg">
<g filter="url(#filter0_d_12003_3295)">
<path d="M36.25 21.3669C36.25 15.5857 33.125 10.2732 28.125 7.30444C23.0469 4.41382 16.875 4.41382 11.875 7.30444C6.79688 10.2732 3.75 15.5857 3.75 21.3669C3.75 27.2263 6.79688 32.5388 11.875 35.5076C16.875 38.3982 23.0469 38.3982 28.125 35.5076C33.125 32.5388 36.25 27.2263 36.25 21.3669ZM0 21.3669C0 14.2576 3.75 7.69507 10 4.10132C16.1719 0.507568 23.75 0.507568 30 4.10132C36.1719 7.69507 40 14.2576 40 21.3669C40 28.5544 36.1719 35.1169 30 38.7107C23.75 42.3044 16.1719 42.3044 10 38.7107C3.75 35.1169 0 28.5544 0 21.3669ZM9.6875 27.4607L12.8125 25.3513C13.75 26.7576 16.4844 28.8669 20 28.8669C23.4375 28.8669 26.25 26.7576 27.1875 25.3513L30.3125 27.4607C28.75 29.8044 24.7656 32.6169 20 32.6169C15.1562 32.6169 11.25 29.8044 9.6875 27.4607ZM11.25 17.6169C11.25 16.2888 12.3438 15.1169 13.75 15.1169C15.1562 15.1169 16.25 16.2888 16.25 17.6169C16.25 19.0232 15.1562 20.1169 13.75 20.1169C12.3438 20.1169 11.25 19.0232 11.25 17.6169ZM26.25 15.1169C27.6562 15.1169 28.75 16.2888 28.75 17.6169C28.75 19.0232 27.6562 20.1169 26.25 20.1169C24.8438 20.1169 23.75 19.0232 23.75 17.6169C23.75 16.2888 24.8438 15.1169 26.25 15.1169Z" fill="#3364FA"/>
</g>
<defs>
<filter id="filter0_d_12003_3295" x="0" y="0.507568" width="42" height="43.7969" filterUnits="userSpaceOnUse" color-interpolation-filters="sRGB">
<feFlood flood-opacity="0" result="BackgroundImageFix"/>
<feColorMatrix in="SourceAlpha" type="matrix" values="0 0 0 0 0 0 0 0 0 0 0 0 0 0 0 0 0 0 127 0" result="hardAlpha"/>
<feOffset dx="2" dy="2"/>
<feComposite in2="hardAlpha" operator="out"/>
<feColorMatrix type="matrix" values="0 0 0 0 0.721569 0 0 0 0 0.988235 0 0 0 0 0.74902 0 0 0 1 0"/>
<feBlend mode="normal" in2="BackgroundImageFix" result="effect1_dropShadow_12003_3295"/>
<feBlend mode="normal" in="SourceGraphic" in2="effect1_dropShadow_12003_3295" result="shape"/>
</filter>
</defs>
</svg>
