<svg width="45" height="42" viewBox="0 0 45 42" fill="none" xmlns="http://www.w3.org/2000/svg">
<g filter="url(#filter0_d_11966_5692)">
<path d="M28.2188 12.8125L37.9844 14.5312L42.5156 15.3125L39.3125 18.5938L32.4375 25.7031L33.8438 35.5469L34.4688 40L30.4062 38.0469L21.5 33.6719L12.5156 38.0469L8.45312 40L9.15625 35.5469L10.5625 25.7031L3.60938 18.5938L0.40625 15.3125L4.9375 14.5312L14.7031 12.8125L19.3125 4.0625L21.5 0L23.6094 4.0625L28.2188 12.8125ZM34.8594 17.8125L27.5938 16.5625L25.7969 16.25L24.9375 14.6094L21.5 8.04688L18.0625 14.6094L17.2031 16.25L15.3281 16.5625L8.0625 17.8125L13.2188 23.125L14.5469 24.375L14.2344 26.25L13.2188 33.5156L19.7812 30.3125L21.5 29.4531L23.1406 30.3125L29.7812 33.5156L28.6875 26.25L28.4531 24.375L29.7031 23.125L34.8594 17.8125Z" fill="#3364FA"/>
</g>
<defs>
<filter id="filter0_d_11966_5692" x="0.40625" y="0" width="44.1094" height="42" filterUnits="userSpaceOnUse" color-interpolation-filters="sRGB">
<feFlood flood-opacity="0" result="BackgroundImageFix"/>
<feColorMatrix in="SourceAlpha" type="matrix" values="0 0 0 0 0 0 0 0 0 0 0 0 0 0 0 0 0 0 127 0" result="hardAlpha"/>
<feOffset dx="2" dy="2"/>
<feComposite in2="hardAlpha" operator="out"/>
<feColorMatrix type="matrix" values="0 0 0 0 0.721569 0 0 0 0 0.988235 0 0 0 0 0.74902 0 0 0 1 0"/>
<feBlend mode="normal" in2="BackgroundImageFix" result="effect1_dropShadow_11966_5692"/>
<feBlend mode="normal" in="SourceGraphic" in2="effect1_dropShadow_11966_5692" result="shape"/>
</filter>
</defs>
</svg>
