<svg width="42" height="38" viewBox="0 0 42 38" fill="none" xmlns="http://www.w3.org/2000/svg">
<g filter="url(#filter0_d_12003_3301)">
<path d="M17.5 0.866943H19.375H26.875H28.75V2.74194V5.32007C28.75 7.74194 28.2812 10.0076 27.4219 12.1169H35H38.125H40V13.9919V20.2419V22.1169H38.75V25.2419V27.1169H36.875V30.2419V32.1169H35V33.9919V35.8669H33.125H30H21.25H20.2344H19.6875L19.2188 35.5544L18.4375 35.0857L12.5 31.1013V26.5701L20.5469 31.9607L20.8594 32.1951H21.25H30H31.25V30.2419V28.3669H33.125V25.2419V23.3669H35V20.2419V18.3669H36.25V15.8669H35H24.2969H20.9375L22.7344 13.0544C24.1406 10.7888 25 8.13257 25 5.32007V4.61694H21.25V5.32007C21.25 9.22632 19.0625 12.8201 15.7031 14.6951L15.3125 14.8513L13.8281 15.6326L13.4375 15.8669H12.9688H12.8125H12.5V12.1169L13.5156 11.5701L13.9062 11.4138C16.0938 10.1638 17.5 7.89819 17.5 5.32007V2.74194V0.866943ZM10 13.3669V35.8669H0V13.3669H10Z" fill="#3364FA"/>
</g>
<defs>
<filter id="filter0_d_12003_3301" x="0" y="0.866943" width="42" height="37" filterUnits="userSpaceOnUse" color-interpolation-filters="sRGB">
<feFlood flood-opacity="0" result="BackgroundImageFix"/>
<feColorMatrix in="SourceAlpha" type="matrix" values="0 0 0 0 0 0 0 0 0 0 0 0 0 0 0 0 0 0 127 0" result="hardAlpha"/>
<feOffset dx="2" dy="2"/>
<feComposite in2="hardAlpha" operator="out"/>
<feColorMatrix type="matrix" values="0 0 0 0 0.721569 0 0 0 0 0.988235 0 0 0 0 0.74902 0 0 0 1 0"/>
<feBlend mode="normal" in2="BackgroundImageFix" result="effect1_dropShadow_12003_3301"/>
<feBlend mode="normal" in="SourceGraphic" in2="effect1_dropShadow_12003_3301" result="shape"/>
</filter>
</defs>
</svg>
